<?xml version="1.0" encoding="UTF-8" standalone="no"?>
<svg
   xmlns:dc="http://purl.org/dc/elements/1.1/"
   xmlns:cc="http://creativecommons.org/ns#"
   xmlns:rdf="http://www.w3.org/1999/02/22-rdf-syntax-ns#"
   xmlns:svg="http://www.w3.org/2000/svg"
   xmlns="http://www.w3.org/2000/svg"
   xmlns:sodipodi="http://sodipodi.sourceforge.net/DTD/sodipodi-0.dtd"
   xmlns:inkscape="http://www.inkscape.org/namespaces/inkscape"
   inkscape:export-ydpi="88.514374"
   inkscape:export-xdpi="88.514374"
   inkscape:export-filename="E:\_dev\webdev\duck-dlc\assets\logo\logo3d-500.png"
   sodipodi:docname="logo.svg"
   inkscape:version="1.0 (4035a4fb49, 2020-05-01)"
   id="svg8"
   version="1.1"
   viewBox="0 0 143.47959 143.47953"
   height="143.47952mm"
   width="143.47958mm">
  <defs
     id="defs2">
    <clipPath
       clipPathUnits="userSpaceOnUse"
       id="clipPath2220">
      <path
         id="path2222"
         style="display:none;opacity:1;fill:#ffffff;fill-opacity:1;stroke-width:1.28038;stroke-linecap:square;stroke-linejoin:round;paint-order:stroke fill markers;stop-color:#000000"
         d="m 111.53225,72.452758 a 22.194524,22.194524 0 0 0 -22.136919,22.194335 22.194524,22.194524 0 0 0 11.890509,19.657797 22.194524,22.194524 0 0 1 -5.766119,0.91837 22.194524,22.194524 0 0 1 -0.57703,0.007 22.194524,22.194524 0 0 1 -21.843894,-18.266493 36.035255,36.035255 0 0 0 -3.988091,16.477963 36.035255,36.035255 0 0 0 36.035004,36.03537 36.035255,36.035255 0 0 0 27.87796,-13.20223 36.035255,36.035255 0 0 0 4.61187,-7.24622 22.194524,22.194524 0 0 0 0.009,-0.023 22.194524,22.194524 0 0 0 0.0514,-0.13504 22.194524,22.194524 0 0 0 0.0508,-0.13505 22.194524,22.194524 0 0 0 0.0503,-0.13552 22.194524,22.194524 0 0 0 0.0495,-0.1357 22.194524,22.194524 0 0 0 0.048,-0.13589 22.194524,22.194524 0 0 0 0.0474,-0.13637 22.194524,22.194524 0 0 0 0.0466,-0.13671 22.194524,22.194524 0 0 0 0.0459,-0.13705 22.194524,22.194524 0 0 0 0.0453,-0.13722 22.194524,22.194524 0 0 0 0.0438,-0.13755 22.194524,22.194524 0 0 0 0.0432,-0.13788 22.194524,22.194524 0 0 0 0.0417,-0.13806 22.194524,22.194524 0 0 0 0.0412,-0.1384 22.194524,22.194524 0 0 0 0.0404,-0.13891 22.194524,22.194524 0 0 0 0.0397,-0.1389 22.194524,22.194524 0 0 0 0.0383,-0.13923 22.194524,22.194524 0 0 0 0.0374,-0.13941 22.194524,22.194524 0 0 0 0.0368,-0.13956 22.194524,22.194524 0 0 0 0.0361,-0.13989 22.194524,22.194524 0 0 0 0.0348,-0.1401 22.194524,22.194524 0 0 0 0.0341,-0.14041 22.194524,22.194524 0 0 0 0.0334,-0.14039 22.194524,22.194524 0 0 0 0.0319,-0.14091 22.194524,22.194524 0 0 0 0.0315,-0.14092 22.194524,22.194524 0 0 0 0.0306,-0.14126 22.194524,22.194524 0 0 0 0.0293,-0.14142 22.194524,22.194524 0 0 0 0.0284,-0.14161 22.194524,22.194524 0 0 0 0.0279,-0.14158 22.194524,22.194524 0 0 0 0.0265,-0.14208 22.194524,22.194524 0 0 0 0.0257,-0.14226 22.194524,22.194524 0 0 0 0.0251,-0.14227 22.194524,22.194524 0 0 0 0.0236,-0.14245 22.194524,22.194524 0 0 0 0.023,-0.14243 22.194524,22.194524 0 0 0 0.0225,-0.14274 22.194524,22.194524 0 0 0 0.0209,-0.14277 22.194524,22.194524 0 0 0 0.0201,-0.14295 22.194524,22.194524 0 0 0 0.0196,-0.14328 22.194524,22.194524 0 0 0 0.018,-0.14327 22.194524,22.194524 0 0 0 0.0175,-0.14327 22.194524,22.194524 0 0 0 0.0167,-0.14359 22.194524,22.194524 0 0 0 0.0151,-0.14361 22.194524,22.194524 0 0 0 0.0151,-0.14362 22.194524,22.194524 0 0 0 0.0135,-0.14375 22.194524,22.194524 0 0 0 0.0117,-0.14414 22.194524,22.194524 0 0 0 0.0119,-0.14378 22.194524,22.194524 0 0 0 0.0101,-0.14409 22.194524,22.194524 0 0 0 0.0101,-0.14412 22.194524,22.194524 0 0 0 0.009,-0.14412 22.194524,22.194524 0 0 0 0.009,-0.14427 22.194524,22.194524 0 0 0 0.007,-0.14428 22.194524,22.194524 0 0 0 0.007,-0.14412 22.194524,22.194524 0 0 0 0.007,-0.14428 22.194524,22.194524 0 0 0 0.007,-0.14462 22.194524,22.194524 0 0 0 0.007,-0.14428 22.194524,22.194524 0 0 0 0,-0.14427 22.194524,22.194524 0 0 0 0,-0.14428 22.194524,22.194524 0 0 0 1.8e-4,-0.14462 22.194524,22.194524 0 0 0 0,-0.0578 22.194524,22.194524 0 0 0 0,-0.14428 22.194524,22.194524 0 0 0 0,-0.14428 22.194524,22.194524 0 0 0 0,-0.14459 22.194524,22.194524 0 0 0 -0.007,-0.14428 22.194524,22.194524 0 0 0 -0.007,-0.14428 22.194524,22.194524 0 0 0 -0.007,-0.14446 22.194524,22.194524 0 0 0 -0.007,-0.14428 22.194524,22.194524 0 0 0 -0.007,-0.14412 22.194524,22.194524 0 0 0 -0.009,-0.14427 22.194524,22.194524 0 0 0 -0.009,-0.14412 22.194524,22.194524 0 0 0 -0.0101,-0.14412 22.194524,22.194524 0 0 0 -0.0101,-0.14409 22.194524,22.194524 0 0 0 -0.0116,-0.1438 22.194524,22.194524 0 0 0 -0.0135,-0.14375 22.194524,22.194524 0 0 0 -0.0135,-0.14378 22.194524,22.194524 0 0 0 -0.0151,-0.14361 22.194524,22.194524 0 0 0 -0.0167,-0.14362 22.194524,22.194524 0 0 0 -0.0169,-0.14361 22.194524,22.194524 0 0 0 -0.0175,-0.14325 22.194524,22.194524 0 0 0 -0.0188,-0.1433 22.194524,22.194524 0 0 0 -0.0196,-0.14292 22.194524,22.194524 0 0 0 -0.0201,-0.14309 22.194524,22.194524 0 0 0 -0.0214,-0.14277 22.194524,22.194524 0 0 0 -0.0225,-0.14277 22.194524,22.194524 0 0 0 -0.0236,-0.14245 22.194524,22.194524 0 0 0 -0.0243,-0.14224 22.194524,22.194524 0 0 0 -0.0251,-0.14227 22.194524,22.194524 0 0 0 -0.0257,-0.14192 22.194524,22.194524 0 0 0 -0.027,-0.14195 22.194524,22.194524 0 0 0 -0.0279,-0.14174 22.194524,22.194524 0 0 0 -0.0284,-0.14142 22.194524,22.194524 0 0 0 -0.0299,-0.14142 22.194524,22.194524 0 0 0 -0.0306,-0.14091 22.194524,22.194524 0 0 0 -0.0315,-0.14092 22.194524,22.194524 0 0 0 -0.0327,-0.14076 22.194524,22.194524 0 0 0 -0.0334,-0.14041 22.194524,22.194524 0 0 0 -0.0342,-0.14042 22.194524,22.194524 0 0 0 -0.0356,-0.13991 22.194524,22.194524 0 0 0 -0.0361,-0.13988 22.194524,22.194524 0 0 0 -0.037,-0.1396 22.194524,22.194524 0 0 0 -0.0377,-0.13941 22.194524,22.194524 0 0 0 -0.039,-0.13888 22.194524,22.194524 0 0 0 -0.0397,-0.13872 22.194524,22.194524 0 0 0 -0.0404,-0.13875 22.194524,22.194524 0 0 0 -0.0417,-0.13837 22.194524,22.194524 0 0 0 -0.0424,-0.13806 22.194524,22.194524 0 0 0 -0.0431,-0.13756 22.194524,22.194524 0 0 0 -0.0446,-0.13756 22.194524,22.194524 0 0 0 -0.0453,-0.13705 22.194524,22.194524 0 0 0 -0.0459,-0.13705 22.194524,22.194524 0 0 0 -0.0466,-0.13656 22.194524,22.194524 0 0 0 -0.048,-0.13636 22.194524,22.194524 0 0 0 -0.0487,-0.13571 22.194524,22.194524 0 0 0 -0.0502,-0.1357 22.194524,22.194524 0 0 0 -0.0503,-0.1352 22.194524,22.194524 0 0 0 -0.0514,-0.13502 22.194524,22.194524 0 0 0 -0.0523,-0.1347 22.194524,22.194524 0 0 0 -0.0535,-0.1342 22.194524,22.194524 0 0 0 -0.0535,-0.13403 22.194524,22.194524 0 0 0 -0.055,-0.13367 22.194524,22.194524 0 0 0 -0.0557,-0.13319 22.194524,22.194524 0 0 0 -0.0563,-0.13285 22.194524,22.194524 0 0 0 -0.0578,-0.13235 22.194524,22.194524 0 0 0 -0.0585,-0.132 22.194524,22.194524 0 0 0 -0.059,-0.13184 22.194524,22.194524 0 0 0 -0.0599,-0.13131 22.194524,22.194524 0 0 0 -0.0614,-0.13084 22.194524,22.194524 0 0 0 -0.0614,-0.13049 22.194524,22.194524 0 0 0 -0.0625,-0.13033 22.194524,22.194524 0 0 0 -0.0634,-0.12981 22.194524,22.194524 0 0 0 -0.064,-0.1293 22.194524,22.194524 0 0 0 -0.0654,-0.12883 22.194524,22.194524 0 0 0 -0.0661,-0.12848 22.194524,22.194524 0 0 0 -0.0667,-0.12829 22.194524,22.194524 0 0 0 -0.0676,-0.12748 22.194524,22.194524 0 0 0 -0.0682,-0.12713 22.194524,22.194524 0 0 0 -0.0697,-0.1266 22.194524,22.194524 0 0 0 -0.0701,-0.12629 22.194524,22.194524 0 0 0 -0.0711,-0.12562 22.194524,22.194524 0 0 0 -0.0716,-0.12544 22.194524,22.194524 0 0 0 -0.0726,-0.12478 22.194524,22.194524 0 0 0 -0.0734,-0.12443 22.194524,22.194524 0 0 0 -0.0743,-0.12412 22.194524,22.194524 0 0 0 -0.075,-0.12324 22.194524,22.194524 0 0 0 -0.0756,-0.12293 22.194524,22.194524 0 0 0 -0.0767,-0.12258 22.194524,22.194524 0 0 0 -0.0774,-0.12176 22.194524,22.194524 0 0 0 -0.0781,-0.12142 22.194524,22.194524 0 0 0 -0.0789,-0.12089 22.194524,22.194524 0 0 0 -0.0801,-0.12057 22.194524,22.194524 0 0 0 -0.0805,-0.11991 22.194524,22.194524 0 0 0 -0.0812,-0.11938 22.194524,22.194524 0 0 0 -0.082,-0.11874 22.194524,22.194524 0 0 0 -0.0832,-0.11838 22.194524,22.194524 0 0 0 -0.0836,-0.11787 22.194524,22.194524 0 0 0 -0.0844,-0.11705 22.194524,22.194524 0 0 0 -0.0853,-0.11687 22.194524,22.194524 0 0 0 -0.086,-0.11602 22.194524,22.194524 0 0 0 -0.0867,-0.11551 22.194524,22.194524 0 0 0 -0.0873,-0.11502 22.194524,22.194524 0 0 0 -0.0883,-0.11451 22.194524,22.194524 0 0 0 -0.0888,-0.11369 22.194524,22.194524 0 0 0 -0.0899,-0.11319 22.194524,22.194524 0 0 0 -0.0903,-0.11266 22.194524,22.194524 0 0 0 -0.0912,-0.11216 22.194524,22.194524 0 0 0 -0.092,-0.11149 22.194524,22.194524 0 0 0 -0.0925,-0.11097 22.194524,22.194524 0 0 0 -0.0932,-0.10999 22.194524,22.194524 0 0 0 -0.094,-0.10998 22.194524,22.194524 0 0 0 -0.0948,-0.10914 22.194524,22.194524 0 0 0 -0.0955,-0.10851 22.194524,22.194524 0 0 0 -0.096,-0.10776 22.194524,22.194524 0 0 0 -0.0967,-0.10711 22.194524,22.194524 0 0 0 -0.0976,-0.10647 22.194524,22.194524 0 0 0 -0.0982,-0.10591 22.194524,22.194524 0 0 0 -0.0989,-0.10538 22.194524,22.194524 0 0 0 -0.0994,-0.10459 22.194524,22.194524 0 0 0 -0.10039,-0.10398 22.194524,22.194524 0 0 0 -0.1007,-0.10319 22.194524,22.194524 0 0 0 -0.10189,-0.10276 22.194524,22.194524 0 0 0 -0.10223,-0.10192 22.194524,22.194524 0 0 0 -0.10277,-0.10102 22.194524,22.194524 0 0 0 -0.10353,-0.1007 22.194524,22.194524 0 0 0 -0.1043,-0.0998 22.194524,22.194524 0 0 0 -0.10472,-0.0992 22.194524,22.194524 0 0 0 -0.10546,-0.0988 22.194524,22.194524 0 0 0 -0.10626,-0.0979 22.194524,22.194524 0 0 0 -0.10689,-0.0973 22.194524,22.194524 0 0 0 -0.1071,-0.0965 22.194524,22.194524 0 0 0 -0.1083,-0.0958 22.194524,22.194524 0 0 0 -0.0431,-0.0377 22.194524,22.194524 0 0 0 2.15313,-8.269764 8.3666732,8.3666732 0 0 0 5.00877,-7.663127 8.3666732,8.3666732 0 0 0 -0.42262,-2.625328 8.3666732,8.3666732 0 0 1 -4.72209,1.460103 8.3666732,8.3666732 0 0 1 -1.14793,-0.0789 22.194524,22.194524 0 0 0 -20.86922,-14.640454 22.194524,22.194524 0 0 0 -0.0578,0 z" />
      <path
         id="lpe_path-effect2224"
         style="display:inline;opacity:1;fill:#ffffff;fill-opacity:1;stroke-width:1.28038;stroke-linecap:square;stroke-linejoin:round;paint-order:stroke fill markers;stop-color:#000000"
         class="powerclip"
         d="M 13.04742,19.877213 H 195.22293 V 202.05266 H 13.04742 Z m 98.48483,52.575545 a 22.194524,22.194524 0 0 0 -22.136919,22.194335 22.194524,22.194524 0 0 0 11.890509,19.657797 22.194524,22.194524 0 0 1 -5.766119,0.91837 22.194524,22.194524 0 0 1 -0.57703,0.007 22.194524,22.194524 0 0 1 -21.843894,-18.266493 36.035255,36.035255 0 0 0 -3.988091,16.477963 36.035255,36.035255 0 0 0 36.035004,36.03537 36.035255,36.035255 0 0 0 27.87796,-13.20223 36.035255,36.035255 0 0 0 4.61187,-7.24622 22.194524,22.194524 0 0 0 0.009,-0.023 22.194524,22.194524 0 0 0 0.0514,-0.13504 22.194524,22.194524 0 0 0 0.0508,-0.13505 22.194524,22.194524 0 0 0 0.0503,-0.13552 22.194524,22.194524 0 0 0 0.0495,-0.1357 22.194524,22.194524 0 0 0 0.048,-0.13589 22.194524,22.194524 0 0 0 0.0474,-0.13637 22.194524,22.194524 0 0 0 0.0466,-0.13671 22.194524,22.194524 0 0 0 0.0459,-0.13705 22.194524,22.194524 0 0 0 0.0453,-0.13722 22.194524,22.194524 0 0 0 0.0438,-0.13755 22.194524,22.194524 0 0 0 0.0432,-0.13788 22.194524,22.194524 0 0 0 0.0417,-0.13806 22.194524,22.194524 0 0 0 0.0412,-0.1384 22.194524,22.194524 0 0 0 0.0404,-0.13891 22.194524,22.194524 0 0 0 0.0397,-0.1389 22.194524,22.194524 0 0 0 0.0383,-0.13923 22.194524,22.194524 0 0 0 0.0374,-0.13941 22.194524,22.194524 0 0 0 0.0368,-0.13956 22.194524,22.194524 0 0 0 0.0361,-0.13989 22.194524,22.194524 0 0 0 0.0348,-0.1401 22.194524,22.194524 0 0 0 0.0341,-0.14041 22.194524,22.194524 0 0 0 0.0334,-0.14039 22.194524,22.194524 0 0 0 0.0319,-0.14091 22.194524,22.194524 0 0 0 0.0315,-0.14092 22.194524,22.194524 0 0 0 0.0306,-0.14126 22.194524,22.194524 0 0 0 0.0293,-0.14142 22.194524,22.194524 0 0 0 0.0284,-0.14161 22.194524,22.194524 0 0 0 0.0279,-0.14158 22.194524,22.194524 0 0 0 0.0265,-0.14208 22.194524,22.194524 0 0 0 0.0257,-0.14226 22.194524,22.194524 0 0 0 0.0251,-0.14227 22.194524,22.194524 0 0 0 0.0236,-0.14245 22.194524,22.194524 0 0 0 0.023,-0.14243 22.194524,22.194524 0 0 0 0.0225,-0.14274 22.194524,22.194524 0 0 0 0.0209,-0.14277 22.194524,22.194524 0 0 0 0.0201,-0.14295 22.194524,22.194524 0 0 0 0.0196,-0.14328 22.194524,22.194524 0 0 0 0.018,-0.14327 22.194524,22.194524 0 0 0 0.0175,-0.14327 22.194524,22.194524 0 0 0 0.0167,-0.14359 22.194524,22.194524 0 0 0 0.0151,-0.14361 22.194524,22.194524 0 0 0 0.0151,-0.14362 22.194524,22.194524 0 0 0 0.0135,-0.14375 22.194524,22.194524 0 0 0 0.0117,-0.14414 22.194524,22.194524 0 0 0 0.0119,-0.14378 22.194524,22.194524 0 0 0 0.0101,-0.14409 22.194524,22.194524 0 0 0 0.0101,-0.14412 22.194524,22.194524 0 0 0 0.009,-0.14412 22.194524,22.194524 0 0 0 0.009,-0.14427 22.194524,22.194524 0 0 0 0.007,-0.14428 22.194524,22.194524 0 0 0 0.007,-0.14412 22.194524,22.194524 0 0 0 0.007,-0.14428 22.194524,22.194524 0 0 0 0.007,-0.14462 22.194524,22.194524 0 0 0 0.007,-0.14428 22.194524,22.194524 0 0 0 0,-0.14427 22.194524,22.194524 0 0 0 0,-0.14428 22.194524,22.194524 0 0 0 1.8e-4,-0.14462 22.194524,22.194524 0 0 0 0,-0.0578 22.194524,22.194524 0 0 0 0,-0.14428 22.194524,22.194524 0 0 0 0,-0.14428 22.194524,22.194524 0 0 0 0,-0.14459 22.194524,22.194524 0 0 0 -0.007,-0.14428 22.194524,22.194524 0 0 0 -0.007,-0.14428 22.194524,22.194524 0 0 0 -0.007,-0.14446 22.194524,22.194524 0 0 0 -0.007,-0.14428 22.194524,22.194524 0 0 0 -0.007,-0.14412 22.194524,22.194524 0 0 0 -0.009,-0.14427 22.194524,22.194524 0 0 0 -0.009,-0.14412 22.194524,22.194524 0 0 0 -0.0101,-0.14412 22.194524,22.194524 0 0 0 -0.0101,-0.14409 22.194524,22.194524 0 0 0 -0.0116,-0.1438 22.194524,22.194524 0 0 0 -0.0135,-0.14375 22.194524,22.194524 0 0 0 -0.0135,-0.14378 22.194524,22.194524 0 0 0 -0.0151,-0.14361 22.194524,22.194524 0 0 0 -0.0167,-0.14362 22.194524,22.194524 0 0 0 -0.0169,-0.14361 22.194524,22.194524 0 0 0 -0.0175,-0.14325 22.194524,22.194524 0 0 0 -0.0188,-0.1433 22.194524,22.194524 0 0 0 -0.0196,-0.14292 22.194524,22.194524 0 0 0 -0.0201,-0.14309 22.194524,22.194524 0 0 0 -0.0214,-0.14277 22.194524,22.194524 0 0 0 -0.0225,-0.14277 22.194524,22.194524 0 0 0 -0.0236,-0.14245 22.194524,22.194524 0 0 0 -0.0243,-0.14224 22.194524,22.194524 0 0 0 -0.0251,-0.14227 22.194524,22.194524 0 0 0 -0.0257,-0.14192 22.194524,22.194524 0 0 0 -0.027,-0.14195 22.194524,22.194524 0 0 0 -0.0279,-0.14174 22.194524,22.194524 0 0 0 -0.0284,-0.14142 22.194524,22.194524 0 0 0 -0.0299,-0.14142 22.194524,22.194524 0 0 0 -0.0306,-0.14091 22.194524,22.194524 0 0 0 -0.0315,-0.14092 22.194524,22.194524 0 0 0 -0.0327,-0.14076 22.194524,22.194524 0 0 0 -0.0334,-0.14041 22.194524,22.194524 0 0 0 -0.0342,-0.14042 22.194524,22.194524 0 0 0 -0.0356,-0.13991 22.194524,22.194524 0 0 0 -0.0361,-0.13988 22.194524,22.194524 0 0 0 -0.037,-0.1396 22.194524,22.194524 0 0 0 -0.0377,-0.13941 22.194524,22.194524 0 0 0 -0.039,-0.13888 22.194524,22.194524 0 0 0 -0.0397,-0.13872 22.194524,22.194524 0 0 0 -0.0404,-0.13875 22.194524,22.194524 0 0 0 -0.0417,-0.13837 22.194524,22.194524 0 0 0 -0.0424,-0.13806 22.194524,22.194524 0 0 0 -0.0431,-0.13756 22.194524,22.194524 0 0 0 -0.0446,-0.13756 22.194524,22.194524 0 0 0 -0.0453,-0.13705 22.194524,22.194524 0 0 0 -0.0459,-0.13705 22.194524,22.194524 0 0 0 -0.0466,-0.13656 22.194524,22.194524 0 0 0 -0.048,-0.13636 22.194524,22.194524 0 0 0 -0.0487,-0.13571 22.194524,22.194524 0 0 0 -0.0502,-0.1357 22.194524,22.194524 0 0 0 -0.0503,-0.1352 22.194524,22.194524 0 0 0 -0.0514,-0.13502 22.194524,22.194524 0 0 0 -0.0523,-0.1347 22.194524,22.194524 0 0 0 -0.0535,-0.1342 22.194524,22.194524 0 0 0 -0.0535,-0.13403 22.194524,22.194524 0 0 0 -0.055,-0.13367 22.194524,22.194524 0 0 0 -0.0557,-0.13319 22.194524,22.194524 0 0 0 -0.0563,-0.13285 22.194524,22.194524 0 0 0 -0.0578,-0.13235 22.194524,22.194524 0 0 0 -0.0585,-0.132 22.194524,22.194524 0 0 0 -0.059,-0.13184 22.194524,22.194524 0 0 0 -0.0599,-0.13131 22.194524,22.194524 0 0 0 -0.0614,-0.13084 22.194524,22.194524 0 0 0 -0.0614,-0.13049 22.194524,22.194524 0 0 0 -0.0625,-0.13033 22.194524,22.194524 0 0 0 -0.0634,-0.12981 22.194524,22.194524 0 0 0 -0.064,-0.1293 22.194524,22.194524 0 0 0 -0.0654,-0.12883 22.194524,22.194524 0 0 0 -0.0661,-0.12848 22.194524,22.194524 0 0 0 -0.0667,-0.12829 22.194524,22.194524 0 0 0 -0.0676,-0.12748 22.194524,22.194524 0 0 0 -0.0682,-0.12713 22.194524,22.194524 0 0 0 -0.0697,-0.1266 22.194524,22.194524 0 0 0 -0.0701,-0.12629 22.194524,22.194524 0 0 0 -0.0711,-0.12562 22.194524,22.194524 0 0 0 -0.0716,-0.12544 22.194524,22.194524 0 0 0 -0.0726,-0.12478 22.194524,22.194524 0 0 0 -0.0734,-0.12443 22.194524,22.194524 0 0 0 -0.0743,-0.12412 22.194524,22.194524 0 0 0 -0.075,-0.12324 22.194524,22.194524 0 0 0 -0.0756,-0.12293 22.194524,22.194524 0 0 0 -0.0767,-0.12258 22.194524,22.194524 0 0 0 -0.0774,-0.12176 22.194524,22.194524 0 0 0 -0.0781,-0.12142 22.194524,22.194524 0 0 0 -0.0789,-0.12089 22.194524,22.194524 0 0 0 -0.0801,-0.12057 22.194524,22.194524 0 0 0 -0.0805,-0.11991 22.194524,22.194524 0 0 0 -0.0812,-0.11938 22.194524,22.194524 0 0 0 -0.082,-0.11874 22.194524,22.194524 0 0 0 -0.0832,-0.11838 22.194524,22.194524 0 0 0 -0.0836,-0.11787 22.194524,22.194524 0 0 0 -0.0844,-0.11705 22.194524,22.194524 0 0 0 -0.0853,-0.11687 22.194524,22.194524 0 0 0 -0.086,-0.11602 22.194524,22.194524 0 0 0 -0.0867,-0.11551 22.194524,22.194524 0 0 0 -0.0873,-0.11502 22.194524,22.194524 0 0 0 -0.0883,-0.11451 22.194524,22.194524 0 0 0 -0.0888,-0.11369 22.194524,22.194524 0 0 0 -0.0899,-0.11319 22.194524,22.194524 0 0 0 -0.0903,-0.11266 22.194524,22.194524 0 0 0 -0.0912,-0.11216 22.194524,22.194524 0 0 0 -0.092,-0.11149 22.194524,22.194524 0 0 0 -0.0925,-0.11097 22.194524,22.194524 0 0 0 -0.0932,-0.10999 22.194524,22.194524 0 0 0 -0.094,-0.10998 22.194524,22.194524 0 0 0 -0.0948,-0.10914 22.194524,22.194524 0 0 0 -0.0955,-0.10851 22.194524,22.194524 0 0 0 -0.096,-0.10776 22.194524,22.194524 0 0 0 -0.0967,-0.10711 22.194524,22.194524 0 0 0 -0.0976,-0.10647 22.194524,22.194524 0 0 0 -0.0982,-0.10591 22.194524,22.194524 0 0 0 -0.0989,-0.10538 22.194524,22.194524 0 0 0 -0.0994,-0.10459 22.194524,22.194524 0 0 0 -0.10039,-0.10398 22.194524,22.194524 0 0 0 -0.1007,-0.10319 22.194524,22.194524 0 0 0 -0.10189,-0.10276 22.194524,22.194524 0 0 0 -0.10223,-0.10192 22.194524,22.194524 0 0 0 -0.10277,-0.10102 22.194524,22.194524 0 0 0 -0.10353,-0.1007 22.194524,22.194524 0 0 0 -0.1043,-0.0998 22.194524,22.194524 0 0 0 -0.10472,-0.0992 22.194524,22.194524 0 0 0 -0.10546,-0.0988 22.194524,22.194524 0 0 0 -0.10626,-0.0979 22.194524,22.194524 0 0 0 -0.10689,-0.0973 22.194524,22.194524 0 0 0 -0.1071,-0.0965 22.194524,22.194524 0 0 0 -0.1083,-0.0958 22.194524,22.194524 0 0 0 -0.0431,-0.0377 22.194524,22.194524 0 0 0 2.15313,-8.269764 8.3666732,8.3666732 0 0 0 5.00877,-7.663127 8.3666732,8.3666732 0 0 0 -0.42262,-2.625328 8.3666732,8.3666732 0 0 1 -4.72209,1.460103 8.3666732,8.3666732 0 0 1 -1.14793,-0.0789 22.194524,22.194524 0 0 0 -20.86922,-14.640454 22.194524,22.194524 0 0 0 -0.0578,0 z" />
    </clipPath>
    <filter
       id="filter3387-1-2-9-2"
       inkscape:label="Colorize"
       style="color-interpolation-filters:sRGB">
      <feComposite
         id="feComposite3373-3-0-5-0"
         result="composite1"
         k2="0.928144"
         k1="0"
         operator="arithmetic"
         in2="SourceGraphic"
         k3="0"
         k4="0" />
      <feColorMatrix
         id="feColorMatrix3375-0-0-8-9"
         result="colormatrix1"
         type="saturate"
         values="1"
         in="composite1" />
      <feFlood
         id="feFlood3377-5-3-7-7"
         result="flood1"
         flood-color="rgb(158,67,0)"
         flood-opacity="1" />
      <feBlend
         id="feBlend3379-9-5-1-2"
         result="blend1"
         mode="multiply"
         in2="colormatrix1"
         in="flood1" />
      <feBlend
         id="feBlend3381-3-9-4-1"
         result="blend2"
         mode="screen"
         in2="blend1" />
      <feColorMatrix
         id="feColorMatrix3383-6-3-4-1"
         result="colormatrix2"
         type="saturate"
         values="1"
         in="blend2" />
      <feComposite
         id="feComposite3385-8-2-1-9"
         result="composite2"
         operator="in"
         in2="SourceGraphic"
         in="colormatrix2" />
    </filter>
    <inkscape:path-effect
       effect="powerclip"
       id="path-effect2224"
       is_visible="true"
       lpeversion="1"
       inverse="true"
       flatten="false"
       hide_clip="false"
       message="Use fill-rule evenodd on &lt;b&gt;fill and stroke&lt;/b&gt; dialog if no flatten result after convert clip to paths." />
    <filter
       inkscape:collect="always"
       style="color-interpolation-filters:sRGB"
       id="filter3394"
       x="-0.27941686"
       width="1.5588337"
       y="-0.25334674"
       height="1.5066935">
      <feGaussianBlur
         inkscape:collect="always"
         stdDeviation="8.1306855"
         id="feGaussianBlur3396" />
    </filter>
    <clipPath
       id="clipPath2081"
       clipPathUnits="userSpaceOnUse">
      <path
         d="m 110.9533,75.476815 a 20.451895,20.451895 0 0 0 -20.398797,20.45171 20.451895,20.451895 0 0 0 10.956897,18.114355 20.451895,20.451895 0 0 1 -5.313388,0.84627 20.451895,20.451895 0 0 1 -0.531733,0.006 20.451895,20.451895 0 0 1 -20.128812,-16.832258 33.205904,33.205904 0 0 0 -3.67493,15.184168 33.205904,33.205904 0 0 0 33.205653,33.20603 33.205904,33.205904 0 0 0 25.68912,-12.16564 33.205904,33.205904 0 0 0 4.24973,-6.67729 20.451895,20.451895 0 0 0 0.008,-0.0212 20.451895,20.451895 0 0 0 0.0474,-0.12443 20.451895,20.451895 0 0 0 0.0468,-0.12444 20.451895,20.451895 0 0 0 0.0463,-0.12488 20.451895,20.451895 0 0 0 0.0456,-0.12504 20.451895,20.451895 0 0 0 0.0442,-0.12523 20.451895,20.451895 0 0 0 0.0437,-0.12565 20.451895,20.451895 0 0 0 0.0429,-0.126 20.451895,20.451895 0 0 0 0.0423,-0.12628 20.451895,20.451895 0 0 0 0.0417,-0.12645 20.451895,20.451895 0 0 0 0.0404,-0.12673 20.451895,20.451895 0 0 0 0.0398,-0.12708 20.451895,20.451895 0 0 0 0.0384,-0.12721 20.451895,20.451895 0 0 0 0.038,-0.12753 20.451895,20.451895 0 0 0 0.0372,-0.12801 20.451895,20.451895 0 0 0 0.0366,-0.12798 20.451895,20.451895 0 0 0 0.0353,-0.12829 20.451895,20.451895 0 0 0 0.0345,-0.12848 20.451895,20.451895 0 0 0 0.0339,-0.12859 20.451895,20.451895 0 0 0 0.0333,-0.12893 20.451895,20.451895 0 0 0 0.0321,-0.12909 20.451895,20.451895 0 0 0 0.0314,-0.12938 20.451895,20.451895 0 0 0 0.0308,-0.12939 20.451895,20.451895 0 0 0 0.0294,-0.12985 20.451895,20.451895 0 0 0 0.029,-0.12983 20.451895,20.451895 0 0 0 0.0282,-0.13018 20.451895,20.451895 0 0 0 0.027,-0.13031 20.451895,20.451895 0 0 0 0.0262,-0.13049 20.451895,20.451895 0 0 0 0.0257,-0.13046 20.451895,20.451895 0 0 0 0.0243,-0.13095 20.451895,20.451895 0 0 0 0.0238,-0.13107 20.451895,20.451895 0 0 0 0.023,-0.1311 20.451895,20.451895 0 0 0 0.0217,-0.13126 20.451895,20.451895 0 0 0 0.0212,-0.13124 20.451895,20.451895 0 0 0 0.0206,-0.13155 20.451895,20.451895 0 0 0 0.0193,-0.13157 20.451895,20.451895 0 0 0 0.0185,-0.13171 20.451895,20.451895 0 0 0 0.018,-0.13203 20.451895,20.451895 0 0 0 0.0167,-0.132 20.451895,20.451895 0 0 0 0.0159,-0.13203 20.451895,20.451895 0 0 0 0.0156,-0.13234 20.451895,20.451895 0 0 0 0.0138,-0.13232 20.451895,20.451895 0 0 0 0.014,-0.13235 20.451895,20.451895 0 0 0 0.0124,-0.13247 20.451895,20.451895 0 0 0 0.0109,-0.1328 20.451895,20.451895 0 0 0 0.0109,-0.1325 20.451895,20.451895 0 0 0 0.009,-0.13279 20.451895,20.451895 0 0 0 0.009,-0.1328 20.451895,20.451895 0 0 0 0.008,-0.13279 20.451895,20.451895 0 0 0 0.008,-0.13296 20.451895,20.451895 0 0 0 0.006,-0.13295 20.451895,20.451895 0 0 0 0.006,-0.13279 20.451895,20.451895 0 0 0 0.006,-0.13296 20.451895,20.451895 0 0 0 0.006,-0.13324 20.451895,20.451895 0 0 0 0.006,-0.13298 20.451895,20.451895 0 0 0 0,-0.13295 20.451895,20.451895 0 0 0 0,-0.13293 20.451895,20.451895 0 0 0 1.6e-4,-0.13327 20.451895,20.451895 0 0 0 0,-0.0533 20.451895,20.451895 0 0 0 0,-0.13293 20.451895,20.451895 0 0 0 0,-0.13295 20.451895,20.451895 0 0 0 0,-0.13328 20.451895,20.451895 0 0 0 -0.006,-0.13295 20.451895,20.451895 0 0 0 -0.006,-0.13295 20.451895,20.451895 0 0 0 -0.006,-0.13311 20.451895,20.451895 0 0 0 -0.006,-0.13296 20.451895,20.451895 0 0 0 -0.006,-0.13279 20.451895,20.451895 0 0 0 -0.008,-0.13295 20.451895,20.451895 0 0 0 -0.008,-0.1328 20.451895,20.451895 0 0 0 -0.009,-0.13279 20.451895,20.451895 0 0 0 -0.009,-0.1328 20.451895,20.451895 0 0 0 -0.0108,-0.13247 20.451895,20.451895 0 0 0 -0.0124,-0.13251 20.451895,20.451895 0 0 0 -0.0124,-0.13247 20.451895,20.451895 0 0 0 -0.014,-0.13235 20.451895,20.451895 0 0 0 -0.0156,-0.13232 20.451895,20.451895 0 0 0 -0.0156,-0.13234 20.451895,20.451895 0 0 0 -0.0161,-0.132 20.451895,20.451895 0 0 0 -0.0175,-0.13206 20.451895,20.451895 0 0 0 -0.018,-0.13171 20.451895,20.451895 0 0 0 -0.0185,-0.13184 20.451895,20.451895 0 0 0 -0.0198,-0.13157 20.451895,20.451895 0 0 0 -0.0206,-0.13156 20.451895,20.451895 0 0 0 -0.0217,-0.13126 20.451895,20.451895 0 0 0 -0.0225,-0.13107 20.451895,20.451895 0 0 0 -0.023,-0.1311 20.451895,20.451895 0 0 0 -0.0238,-0.13078 20.451895,20.451895 0 0 0 -0.0249,-0.13079 20.451895,20.451895 0 0 0 -0.0257,-0.13062 20.451895,20.451895 0 0 0 -0.0262,-0.13031 20.451895,20.451895 0 0 0 -0.0276,-0.13033 20.451895,20.451895 0 0 0 -0.0282,-0.12983 20.451895,20.451895 0 0 0 -0.029,-0.12986 20.451895,20.451895 0 0 0 -0.0301,-0.1297 20.451895,20.451895 0 0 0 -0.0308,-0.12938 20.451895,20.451895 0 0 0 -0.0315,-0.12941 20.451895,20.451895 0 0 0 -0.0328,-0.1289 20.451895,20.451895 0 0 0 -0.0333,-0.12894 20.451895,20.451895 0 0 0 -0.0341,-0.12861 20.451895,20.451895 0 0 0 -0.0347,-0.12846 20.451895,20.451895 0 0 0 -0.0359,-0.128 20.451895,20.451895 0 0 0 -0.0366,-0.12782 20.451895,20.451895 0 0 0 -0.0372,-0.12785 20.451895,20.451895 0 0 0 -0.0384,-0.12753 20.451895,20.451895 0 0 0 -0.0391,-0.12721 20.451895,20.451895 0 0 0 -0.0397,-0.12676 20.451895,20.451895 0 0 0 -0.0411,-0.12676 20.451895,20.451895 0 0 0 -0.0417,-0.12629 20.451895,20.451895 0 0 0 -0.0423,-0.12628 20.451895,20.451895 0 0 0 -0.0429,-0.12581 20.451895,20.451895 0 0 0 -0.0442,-0.12568 20.451895,20.451895 0 0 0 -0.0449,-0.12504 20.451895,20.451895 0 0 0 -0.0463,-0.12507 20.451895,20.451895 0 0 0 -0.0463,-0.12457 20.451895,20.451895 0 0 0 -0.0474,-0.12443 20.451895,20.451895 0 0 0 -0.0482,-0.12412 20.451895,20.451895 0 0 0 -0.0493,-0.12366 20.451895,20.451895 0 0 0 -0.0493,-0.12351 20.451895,20.451895 0 0 0 -0.0507,-0.12319 20.451895,20.451895 0 0 0 -0.0513,-0.12271 20.451895,20.451895 0 0 0 -0.0519,-0.12243 20.451895,20.451895 0 0 0 -0.0533,-0.12194 20.451895,20.451895 0 0 0 -0.0539,-0.12163 20.451895,20.451895 0 0 0 -0.0544,-0.1215 20.451895,20.451895 0 0 0 -0.0552,-0.12102 20.451895,20.451895 0 0 0 -0.0566,-0.12054 20.451895,20.451895 0 0 0 -0.0566,-0.12026 20.451895,20.451895 0 0 0 -0.0576,-0.12009 20.451895,20.451895 0 0 0 -0.0584,-0.11962 20.451895,20.451895 0 0 0 -0.059,-0.11917 20.451895,20.451895 0 0 0 -0.0603,-0.11869 20.451895,20.451895 0 0 0 -0.0609,-0.11837 20.451895,20.451895 0 0 0 -0.0615,-0.11825 20.451895,20.451895 0 0 0 -0.0623,-0.11744 20.451895,20.451895 0 0 0 -0.0628,-0.11716 20.451895,20.451895 0 0 0 -0.0642,-0.11668 20.451895,20.451895 0 0 0 -0.0646,-0.11637 20.451895,20.451895 0 0 0 -0.0655,-0.11575 20.451895,20.451895 0 0 0 -0.066,-0.1156 20.451895,20.451895 0 0 0 -0.0669,-0.11499 20.451895,20.451895 0 0 0 -0.0676,-0.11464 20.451895,20.451895 0 0 0 -0.0685,-0.11438 20.451895,20.451895 0 0 0 -0.0691,-0.11359 20.451895,20.451895 0 0 0 -0.0697,-0.11326 20.451895,20.451895 0 0 0 -0.0707,-0.11295 20.451895,20.451895 0 0 0 -0.0713,-0.11219 20.451895,20.451895 0 0 0 -0.072,-0.11189 20.451895,20.451895 0 0 0 -0.0727,-0.11142 20.451895,20.451895 0 0 0 -0.0738,-0.11109 20.451895,20.451895 0 0 0 -0.0742,-0.11049 20.451895,20.451895 0 0 0 -0.0748,-0.11002 20.451895,20.451895 0 0 0 -0.0756,-0.1094 20.451895,20.451895 0 0 0 -0.0767,-0.10909 20.451895,20.451895 0 0 0 -0.077,-0.10861 20.451895,20.451895 0 0 0 -0.0778,-0.10785 20.451895,20.451895 0 0 0 -0.0786,-0.10771 20.451895,20.451895 0 0 0 -0.0792,-0.10692 20.451895,20.451895 0 0 0 -0.0799,-0.10644 20.451895,20.451895 0 0 0 -0.0804,-0.10599 20.451895,20.451895 0 0 0 -0.0814,-0.10552 20.451895,20.451895 0 0 0 -0.0818,-0.10475 20.451895,20.451895 0 0 0 -0.0828,-0.10429 20.451895,20.451895 0 0 0 -0.0832,-0.10383 20.451895,20.451895 0 0 0 -0.084,-0.10334 20.451895,20.451895 0 0 0 -0.0848,-0.10274 20.451895,20.451895 0 0 0 -0.0852,-0.10226 20.451895,20.451895 0 0 0 -0.0859,-0.10136 20.451895,20.451895 0 0 0 -0.0866,-0.10134 20.451895,20.451895 0 0 0 -0.0874,-0.10057 20.451895,20.451895 0 0 0 -0.088,-0.1 20.451895,20.451895 0 0 0 -0.0885,-0.0993 20.451895,20.451895 0 0 0 -0.0891,-0.0987 20.451895,20.451895 0 0 0 -0.0899,-0.0981 20.451895,20.451895 0 0 0 -0.0905,-0.0976 20.451895,20.451895 0 0 0 -0.0911,-0.0971 20.451895,20.451895 0 0 0 -0.0916,-0.0964 20.451895,20.451895 0 0 0 -0.0925,-0.0958 20.451895,20.451895 0 0 0 -0.0928,-0.0951 20.451895,20.451895 0 0 0 -0.0939,-0.0947 20.451895,20.451895 0 0 0 -0.0942,-0.0939 20.451895,20.451895 0 0 0 -0.0947,-0.0931 20.451895,20.451895 0 0 0 -0.0954,-0.0928 20.451895,20.451895 0 0 0 -0.0961,-0.092 20.451895,20.451895 0 0 0 -0.0965,-0.0914 20.451895,20.451895 0 0 0 -0.0972,-0.091 20.451895,20.451895 0 0 0 -0.0979,-0.0902 20.451895,20.451895 0 0 0 -0.0985,-0.0897 20.451895,20.451895 0 0 0 -0.0987,-0.0889 20.451895,20.451895 0 0 0 -0.0998,-0.0883 20.451895,20.451895 0 0 0 -0.0397,-0.0347 20.451895,20.451895 0 0 0 1.98408,-7.620452 7.7097541,7.7097541 0 0 0 4.61553,-7.061438 7.7097541,7.7097541 0 0 0 -0.38944,-2.419218 7.7097541,7.7097541 0 0 1 -4.35134,1.345486 7.7097541,7.7097541 0 0 1 -1.0578,-0.07271 20.451895,20.451895 0 0 0 -19.23066,-13.490946 20.451895,20.451895 0 0 0 -0.0533,0 z"
         style="display:block;opacity:1;fill:#ffffff;fill-opacity:1;stroke-width:1.17985;stroke-linecap:square;stroke-linejoin:round;paint-order:stroke fill markers;stop-color:#000000"
         id="path2083" />
    </clipPath>
    <filter
       style="color-interpolation-filters:sRGB"
       inkscape:label="Colorize"
       id="filter3387-1-2-9-2-2">
      <feComposite
         k4="0"
         k3="0"
         in2="SourceGraphic"
         operator="arithmetic"
         k1="0"
         k2="0.928144"
         result="composite1"
         id="feComposite3373-3-0-5-0-3" />
      <feColorMatrix
         in="composite1"
         values="1"
         type="saturate"
         result="colormatrix1"
         id="feColorMatrix3375-0-0-8-9-5" />
      <feFlood
         flood-opacity="1"
         flood-color="rgb(158,67,0)"
         result="flood1"
         id="feFlood3377-5-3-7-7-8" />
      <feBlend
         in="flood1"
         in2="colormatrix1"
         mode="multiply"
         result="blend1"
         id="feBlend3379-9-5-1-2-1" />
      <feBlend
         in2="blend1"
         mode="screen"
         result="blend2"
         id="feBlend3381-3-9-4-1-7" />
      <feColorMatrix
         in="blend2"
         values="1"
         type="saturate"
         result="colormatrix2"
         id="feColorMatrix3383-6-3-4-1-24" />
      <feComposite
         in="colormatrix2"
         in2="SourceGraphic"
         operator="in"
         result="composite2"
         id="feComposite3385-8-2-1-9-4" />
    </filter>
    <inkscape:path-effect
       message="Use fill-rule evenodd on &lt;b&gt;fill and stroke&lt;/b&gt; dialog if no flatten result after convert clip to paths."
       hide_clip="false"
       flatten="false"
       inverse="true"
       lpeversion="1"
       is_visible="true"
       id="path-effect2085"
       effect="powerclip" />
    <filter
       style="color-interpolation-filters:sRGB"
       inkscape:label="Colorize"
       id="filter3387-1-2-9-2-5">
      <feComposite
         k4="0"
         k3="0"
         in2="SourceGraphic"
         operator="arithmetic"
         k1="0"
         k2="0.928144"
         result="composite1"
         id="feComposite3373-3-0-5-0-5" />
      <feColorMatrix
         in="composite1"
         values="1"
         type="saturate"
         result="colormatrix1"
         id="feColorMatrix3375-0-0-8-9-7" />
      <feFlood
         flood-opacity="1"
         flood-color="rgb(158,67,0)"
         result="flood1"
         id="feFlood3377-5-3-7-7-9" />
      <feBlend
         in="flood1"
         in2="colormatrix1"
         mode="multiply"
         result="blend1"
         id="feBlend3379-9-5-1-2-8" />
      <feBlend
         in2="blend1"
         mode="screen"
         result="blend2"
         id="feBlend3381-3-9-4-1-2" />
      <feColorMatrix
         in="blend2"
         values="1"
         type="saturate"
         result="colormatrix2"
         id="feColorMatrix3383-6-3-4-1-2" />
      <feComposite
         in="colormatrix2"
         in2="SourceGraphic"
         operator="in"
         result="composite2"
         id="feComposite3385-8-2-1-9-1" />
    </filter>
    <filter
       style="color-interpolation-filters:sRGB"
       inkscape:label="Color Shift"
       id="filter3387-7">
      <feComposite
         k4="0"
         k3="0"
         in2="SourceGraphic"
         operator="arithmetic"
         k1="0"
         k2="0.928144"
         result="composite1"
         id="feComposite3373-7" />
      <feColorMatrix
         in="composite1"
         values="1"
         type="saturate"
         result="colormatrix1"
         id="feColorMatrix3375-5" />
      <feFlood
         flood-opacity="1"
         flood-color="rgb(158,67,0)"
         result="flood1"
         id="feFlood3377-3" />
      <feBlend
         in="flood1"
         in2="colormatrix1"
         mode="multiply"
         result="blend1"
         id="feBlend3379-92" />
      <feBlend
         in2="blend1"
         mode="screen"
         result="blend2"
         id="feBlend3381-6" />
      <feColorMatrix
         in="blend2"
         values="1"
         type="saturate"
         result="colormatrix2"
         id="feColorMatrix3383-7" />
      <feComposite
         in="colormatrix2"
         in2="SourceGraphic"
         operator="in"
         result="fbSourceGraphic"
         id="feComposite3385-7" />
      <feColorMatrix
         result="fbSourceGraphicAlpha"
         in="fbSourceGraphic"
         values="0 0 0 -1 0 0 0 0 -1 0 0 0 0 -1 0 0 0 0 1 0"
         id="feColorMatrix3590-0" />
      <feColorMatrix
         id="feColorMatrix3592-1"
         type="hueRotate"
         values="147"
         result="color1"
         in="fbSourceGraphic" />
      <feColorMatrix
         id="feColorMatrix3594-0"
         type="saturate"
         values="0.6"
         result="color2" />
    </filter>
  </defs>
  <sodipodi:namedview
     inkscape:window-maximized="1"
     inkscape:window-y="-9"
     inkscape:window-x="-9"
     inkscape:window-height="1017"
     inkscape:window-width="1920"
     inkscape:snap-page="true"
     inkscape:showpageshadow="false"
     borderlayer="true"
     showborder="true"
     inkscape:pagecheckerboard="false"
     showgrid="false"
     inkscape:document-rotation="0"
     inkscape:current-layer="g4539"
     inkscape:document-units="mm"
     inkscape:cy="317.56027"
     inkscape:cx="228.62136"
     inkscape:zoom="1.4"
     inkscape:pageshadow="2"
     inkscape:pageopacity="0"
     borderopacity="1"
     bordercolor="#000000"
     pagecolor="#3d3d3d"
     id="base" />
  <metadata
     id="metadata5">
    <rdf:RDF>
      <cc:Work
         rdf:about="">
        <dc:format>image/svg+xml</dc:format>
        <dc:type
           rdf:resource="http://purl.org/dc/dcmitype/StillImage" />
        <dc:title></dc:title>
      </cc:Work>
    </rdf:RDF>
  </metadata>
  <g
     transform="translate(-47.172449,-19.347953)"
     style="display:inline"
     id="layer1"
     inkscape:groupmode="layer"
     inkscape:label="Background" />
  <g
     transform="translate(-47.172449,-19.347953)"
     inkscape:label="Layer 1"
     id="layer2"
     inkscape:groupmode="layer">
    <g
       transform="translate(-182.17551,25.319866)"
       id="g4539">
      <g
         inkscape:export-ydpi="877.25"
         inkscape:export-xdpi="877.25"
         inkscape:path-effect="#path-effect2224"
         clip-path="url(#clipPath2220)"
         transform="translate(196.95258,-45.197079)"
         id="g3179-3-4-8"
         style="display:inline;opacity:1;filter:url(#filter3387-1-2-9-2)" />
      <g
         id="g4730">
        <circle
           style="display:inline;opacity:1;fill:#ffffff;fill-opacity:1;stroke:none;stroke-width:13.239;stroke-linejoin:round;stroke-opacity:1;paint-order:stroke fill markers;stop-color:#000000"
           id="path2228"
           cx="298.33044"
           cy="62.813366"
           r="46.869045"
           inkscape:export-xdpi="877.25"
           inkscape:export-ydpi="877.25" />
        <circle
           transform="translate(196.95258,-45.19708)"
           style="display:inline;opacity:1;filter:url(#filter3387-1-2-9-2);fill:#946958;fill-opacity:1;stroke-width:13.239;stroke-linejoin:round;paint-order:stroke fill markers;stop-color:#000000"
           id="path1794"
           cx="108.97108"
           cy="112.44123"
           r="12.851191"
           d="m 121.82227,112.44123 a 12.851191,12.851191 0 0 1 -12.85119,12.85119 12.851191,12.851191 0 0 1 -12.851194,-12.85119 12.851191,12.851191 0 0 1 12.851194,-12.85119 12.851191,12.851191 0 0 1 12.85119,12.85119" />
        <g
           transform="matrix(-0.13423153,0.07128547,-0.0693786,-0.13064085,319.76101,30.680941)"
           style="display:inline;opacity:1;filter:url(#filter3387-1-2-9-2)"
           id="g2950-9-7-5-8-1-6-1">
          <path
             d="m 244.64312,-229.64554 a 71.739686,71.739686 0 0 1 7.6848,32.30398 71.739686,71.739686 0 0 1 -71.73928,71.7398 71.739686,71.739686 0 0 1 -32.30502,-7.68584 71.739686,71.739686 0 0 0 64.05502,39.435843 71.739686,71.739686 0 0 0 71.73978,-71.739803 71.739686,71.739686 0 0 0 -39.4353,-64.05398 z"
             style="display:inline;opacity:0.309824;fill:#938056;fill-opacity:1;stroke:#000000;stroke-width:0.529167;stroke-linecap:square;stroke-linejoin:round;stroke-miterlimit:4;stroke-dasharray:none;stroke-opacity:1;paint-order:stroke fill markers;stop-color:#000000"
             id="path1051-7-4-4-9-8-3-5-3-9-7-6-2"
             inkscape:original-d="m 244.64312,-229.64554 a 71.739686,71.739686 0 0 1 7.6848,32.30398 71.739686,71.739686 0 0 1 -71.73928,71.7398 71.739686,71.739686 0 0 1 -32.30502,-7.68584 71.739686,71.739686 0 0 0 64.05502,39.435843 71.739686,71.739686 0 0 0 71.73978,-71.739803 71.739686,71.739686 0 0 0 -39.4353,-64.05398 z" />
          <path
             id="path1051-7-4-4-1-7-6-2-2-2-9-8-6-3"
             style="display:inline;opacity:1;fill:#c17425;fill-opacity:1;stroke:none;stroke-width:0.529167;stroke-linecap:square;stroke-linejoin:round;stroke-miterlimit:4;stroke-dasharray:none;stroke-opacity:1;paint-order:stroke fill markers;stop-color:#000000"
             d="m 244.64313,-229.64554 a 71.739686,71.739686 0 0 1 7.68479,32.30397 71.739686,71.739686 0 0 1 -71.73928,71.73981 71.739686,71.739686 0 0 1 -32.30502,-7.68584 71.739686,71.739686 0 0 0 64.05502,39.435843 71.739686,71.739686 0 0 0 71.73978,-71.739813 71.739686,71.739686 0 0 0 -39.43529,-64.05397 z"
             inkscape:original-d="m 244.64313,-229.64554 a 71.739686,71.739686 0 0 1 7.68479,32.30397 71.739686,71.739686 0 0 1 -71.73928,71.73981 71.739686,71.739686 0 0 1 -32.30502,-7.68584 71.739686,71.739686 0 0 0 64.05502,39.435843 71.739686,71.739686 0 0 0 71.73978,-71.739813 71.739686,71.739686 0 0 0 -39.43529,-64.05397 z" />
          <path
             d="m 251.65878,-105.58791 a 71.739686,71.739686 0 0 1 -31.81844,-9.49676 71.739686,71.739686 0 0 1 -26.25886,-97.99795 71.739686,71.739686 0 0 1 22.80864,-24.13405 71.739686,71.739686 0 0 0 -66.17994,35.75536 71.739686,71.739686 0 0 0 26.2586,97.99837 71.739686,71.739686 0 0 0 75.19,-2.12497 z"
             style="display:inline;opacity:1;fill:#d8864c;fill-opacity:1;stroke:none;stroke-width:0.529167;stroke-linecap:square;stroke-linejoin:round;stroke-miterlimit:4;stroke-dasharray:none;stroke-opacity:1;paint-order:stroke fill markers;stop-color:#000000"
             id="path1051-7-4-4-1-2-0-2-4-2-1-4-3-3-8"
             inkscape:original-d="m 251.65878,-105.58791 a 71.739686,71.739686 0 0 1 -31.81844,-9.49676 71.739686,71.739686 0 0 1 -26.25886,-97.99795 71.739686,71.739686 0 0 1 22.80864,-24.13405 71.739686,71.739686 0 0 0 -66.17994,35.75536 71.739686,71.739686 0 0 0 26.2586,97.99837 71.739686,71.739686 0 0 0 75.19,-2.12497 z" />
          <path
             id="path1051-7-4-4-1-2-6-1-2-9-2-8-1-9-3-1"
             style="display:inline;opacity:1;fill:#ffa36d;fill-opacity:1;stroke:none;stroke-width:0.529167;stroke-linecap:square;stroke-linejoin:round;stroke-miterlimit:4;stroke-dasharray:none;stroke-opacity:1;paint-order:stroke fill markers;stop-color:#000000"
             d="m 164.55635,-112.0811 a 71.739686,71.739686 0 0 1 0.93795,-33.19221 71.739686,71.739686 0 0 1 87.86245,-50.72783 71.739686,71.739686 0 0 1 29.21501,15.7851 71.739686,71.739686 0 0 0 -51.66565,-54.67075 71.739686,71.739686 0 0 0 -87.86293,50.72771 71.739686,71.739686 0 0 0 21.51317,72.07798 z"
             inkscape:original-d="m 164.55635,-112.0811 a 71.739686,71.739686 0 0 1 0.93795,-33.19221 71.739686,71.739686 0 0 1 87.86245,-50.72783 71.739686,71.739686 0 0 1 29.21501,15.7851 71.739686,71.739686 0 0 0 -51.66565,-54.67075 71.739686,71.739686 0 0 0 -87.86293,50.72771 71.739686,71.739686 0 0 0 21.51317,72.07798 z" />
          <path
             d="m 158.82818,-213.37383 a 71.739686,71.739686 0 0 1 33.19221,0.93795 71.739686,71.739686 0 0 1 50.72784,87.86245 71.739686,71.739686 0 0 1 -15.78511,29.215013 71.739686,71.739686 0 0 0 54.67076,-51.665653 71.739686,71.739686 0 0 0 -50.72771,-87.86293 71.739686,71.739686 0 0 0 -72.07799,21.51317 z"
             style="display:inline;opacity:1;fill:#a45c1f;fill-opacity:1;stroke:none;stroke-width:0.529167;stroke-linecap:square;stroke-linejoin:round;stroke-miterlimit:4;stroke-dasharray:none;stroke-opacity:1;paint-order:stroke fill markers;stop-color:#000000"
             id="path1051-7-4-4-1-2-6-4-3-3-7-0-4-9-7-7-8"
             inkscape:original-d="m 158.82818,-213.37383 a 71.739686,71.739686 0 0 1 33.19221,0.93795 71.739686,71.739686 0 0 1 50.72784,87.86245 71.739686,71.739686 0 0 1 -15.78511,29.215013 71.739686,71.739686 0 0 0 54.67076,-51.665653 71.739686,71.739686 0 0 0 -50.72771,-87.86293 71.739686,71.739686 0 0 0 -72.07799,21.51317 z" />
        </g>
        <g
           id="g2950-9-7-0-4-8-9"
           style="display:inline;opacity:1;filter:url(#filter3387-1-2-9-2)"
           transform="matrix(0.26699041,-0.06149797,0.05985292,0.25984846,257.057,123.07805)">
          <path
             id="path1051-7-4-4-9-8-3-5-2-5-2-5"
             style="display:inline;opacity:0.309824;fill:#938056;fill-opacity:1;stroke:#000000;stroke-width:0.529167;stroke-linecap:square;stroke-linejoin:round;stroke-miterlimit:4;stroke-dasharray:none;stroke-opacity:1;paint-order:stroke fill markers;stop-color:#000000"
             d="m 244.64312,-229.64554 a 71.739686,71.739686 0 0 1 7.6848,32.30398 71.739686,71.739686 0 0 1 -71.73928,71.7398 71.739686,71.739686 0 0 1 -32.30502,-7.68584 71.739686,71.739686 0 0 0 64.05502,39.435843 71.739686,71.739686 0 0 0 71.73978,-71.739803 71.739686,71.739686 0 0 0 -39.4353,-64.05398 z"
             inkscape:original-d="m 244.64312,-229.64554 a 71.739686,71.739686 0 0 1 7.6848,32.30398 71.739686,71.739686 0 0 1 -71.73928,71.7398 71.739686,71.739686 0 0 1 -32.30502,-7.68584 71.739686,71.739686 0 0 0 64.05502,39.435843 71.739686,71.739686 0 0 0 71.73978,-71.739803 71.739686,71.739686 0 0 0 -39.4353,-64.05398 z" />
          <path
             d="m 244.64313,-229.64554 a 71.739686,71.739686 0 0 1 7.68479,32.30397 71.739686,71.739686 0 0 1 -71.73928,71.73981 71.739686,71.739686 0 0 1 -32.30502,-7.68584 71.739686,71.739686 0 0 0 64.05502,39.435843 71.739686,71.739686 0 0 0 71.73978,-71.739813 71.739686,71.739686 0 0 0 -39.43529,-64.05397 z"
             style="display:inline;opacity:1;fill:#c17425;fill-opacity:1;stroke:none;stroke-width:0.529167;stroke-linecap:square;stroke-linejoin:round;stroke-miterlimit:4;stroke-dasharray:none;stroke-opacity:1;paint-order:stroke fill markers;stop-color:#000000"
             id="path1051-7-4-4-1-7-6-2-2-1-3-3-2"
             inkscape:original-d="m 244.64313,-229.64554 a 71.739686,71.739686 0 0 1 7.68479,32.30397 71.739686,71.739686 0 0 1 -71.73928,71.73981 71.739686,71.739686 0 0 1 -32.30502,-7.68584 71.739686,71.739686 0 0 0 64.05502,39.435843 71.739686,71.739686 0 0 0 71.73978,-71.739813 71.739686,71.739686 0 0 0 -39.43529,-64.05397 z" />
          <path
             id="path1051-7-4-4-1-2-0-2-4-2-9-1-1-7"
             style="display:inline;opacity:1;fill:#d8864c;fill-opacity:1;stroke:none;stroke-width:0.529167;stroke-linecap:square;stroke-linejoin:round;stroke-miterlimit:4;stroke-dasharray:none;stroke-opacity:1;paint-order:stroke fill markers;stop-color:#000000"
             d="m 251.65878,-105.58791 a 71.739686,71.739686 0 0 1 -31.81844,-9.49676 71.739686,71.739686 0 0 1 -26.25886,-97.99795 71.739686,71.739686 0 0 1 22.80864,-24.13405 71.739686,71.739686 0 0 0 -66.17994,35.75536 71.739686,71.739686 0 0 0 26.2586,97.99837 71.739686,71.739686 0 0 0 75.19,-2.12497 z"
             inkscape:original-d="m 251.65878,-105.58791 a 71.739686,71.739686 0 0 1 -31.81844,-9.49676 71.739686,71.739686 0 0 1 -26.25886,-97.99795 71.739686,71.739686 0 0 1 22.80864,-24.13405 71.739686,71.739686 0 0 0 -66.17994,35.75536 71.739686,71.739686 0 0 0 26.2586,97.99837 71.739686,71.739686 0 0 0 75.19,-2.12497 z" />
          <path
             d="m 164.55635,-112.0811 a 71.739686,71.739686 0 0 1 0.93795,-33.19221 71.739686,71.739686 0 0 1 87.86245,-50.72783 71.739686,71.739686 0 0 1 29.21501,15.7851 71.739686,71.739686 0 0 0 -51.66565,-54.67075 71.739686,71.739686 0 0 0 -87.86293,50.72771 71.739686,71.739686 0 0 0 21.51317,72.07798 z"
             style="display:inline;opacity:1;fill:#ffa36d;fill-opacity:1;stroke:none;stroke-width:0.529167;stroke-linecap:square;stroke-linejoin:round;stroke-miterlimit:4;stroke-dasharray:none;stroke-opacity:1;paint-order:stroke fill markers;stop-color:#000000"
             id="path1051-7-4-4-1-2-6-1-2-9-2-2-4-1-3"
             inkscape:original-d="m 164.55635,-112.0811 a 71.739686,71.739686 0 0 1 0.93795,-33.19221 71.739686,71.739686 0 0 1 87.86245,-50.72783 71.739686,71.739686 0 0 1 29.21501,15.7851 71.739686,71.739686 0 0 0 -51.66565,-54.67075 71.739686,71.739686 0 0 0 -87.86293,50.72771 71.739686,71.739686 0 0 0 21.51317,72.07798 z" />
          <path
             id="path1051-7-4-4-1-2-6-4-3-3-7-0-7-7-2-8"
             style="display:inline;opacity:1;fill:#a45c1f;fill-opacity:1;stroke:none;stroke-width:0.529167;stroke-linecap:square;stroke-linejoin:round;stroke-miterlimit:4;stroke-dasharray:none;stroke-opacity:1;paint-order:stroke fill markers;stop-color:#000000"
             d="m 158.82818,-213.37383 a 71.739686,71.739686 0 0 1 33.19221,0.93795 71.739686,71.739686 0 0 1 50.72784,87.86245 71.739686,71.739686 0 0 1 -15.78511,29.215013 71.739686,71.739686 0 0 0 54.67076,-51.665653 71.739686,71.739686 0 0 0 -50.72771,-87.86293 71.739686,71.739686 0 0 0 -72.07799,21.51317 z"
             inkscape:original-d="m 158.82818,-213.37383 a 71.739686,71.739686 0 0 1 33.19221,0.93795 71.739686,71.739686 0 0 1 50.72784,87.86245 71.739686,71.739686 0 0 1 -15.78511,29.215013 71.739686,71.739686 0 0 0 54.67076,-51.665653 71.739686,71.739686 0 0 0 -50.72771,-87.86293 71.739686,71.739686 0 0 0 -72.07799,21.51317 z" />
        </g>
        <g
           transform="matrix(-0.49581488,0.16710881,-0.16263867,-0.4825519,382.27757,-46.407779)"
           style="display:inline;opacity:1;filter:url(#filter3387-1-2-9-2)"
           id="g2950-9-5-8-3-2">
          <path
             d="m 244.64312,-229.64554 a 71.739686,71.739686 0 0 1 7.6848,32.30398 71.739686,71.739686 0 0 1 -71.73928,71.7398 71.739686,71.739686 0 0 1 -32.30502,-7.68584 71.739686,71.739686 0 0 0 64.05502,39.435843 71.739686,71.739686 0 0 0 71.73978,-71.739803 71.739686,71.739686 0 0 0 -39.4353,-64.05398 z"
             style="display:inline;opacity:0.309824;fill:#938056;fill-opacity:1;stroke:#000000;stroke-width:0.529167;stroke-linecap:square;stroke-linejoin:round;stroke-miterlimit:4;stroke-dasharray:none;stroke-opacity:1;paint-order:stroke fill markers;stop-color:#000000"
             id="path1051-7-4-4-9-8-3-3-1-8-0"
             inkscape:original-d="m 244.64312,-229.64554 a 71.739686,71.739686 0 0 1 7.6848,32.30398 71.739686,71.739686 0 0 1 -71.73928,71.7398 71.739686,71.739686 0 0 1 -32.30502,-7.68584 71.739686,71.739686 0 0 0 64.05502,39.435843 71.739686,71.739686 0 0 0 71.73978,-71.739803 71.739686,71.739686 0 0 0 -39.4353,-64.05398 z" />
          <path
             id="path1051-7-4-4-1-7-6-2-5-5-2-5"
             style="display:inline;opacity:1;fill:#c17425;fill-opacity:1;stroke:none;stroke-width:0.529167;stroke-linecap:square;stroke-linejoin:round;stroke-miterlimit:4;stroke-dasharray:none;stroke-opacity:1;paint-order:stroke fill markers;stop-color:#000000"
             d="m 244.64313,-229.64554 a 71.739686,71.739686 0 0 1 7.68479,32.30397 71.739686,71.739686 0 0 1 -71.73928,71.73981 71.739686,71.739686 0 0 1 -32.30502,-7.68584 71.739686,71.739686 0 0 0 64.05502,39.435843 71.739686,71.739686 0 0 0 71.73978,-71.739813 71.739686,71.739686 0 0 0 -39.43529,-64.05397 z"
             inkscape:original-d="m 244.64313,-229.64554 a 71.739686,71.739686 0 0 1 7.68479,32.30397 71.739686,71.739686 0 0 1 -71.73928,71.73981 71.739686,71.739686 0 0 1 -32.30502,-7.68584 71.739686,71.739686 0 0 0 64.05502,39.435843 71.739686,71.739686 0 0 0 71.73978,-71.739813 71.739686,71.739686 0 0 0 -39.43529,-64.05397 z" />
          <path
             d="m 251.65878,-105.58791 a 71.739686,71.739686 0 0 1 -31.81844,-9.49676 71.739686,71.739686 0 0 1 -26.25886,-97.99795 71.739686,71.739686 0 0 1 22.80864,-24.13405 71.739686,71.739686 0 0 0 -66.17994,35.75536 71.739686,71.739686 0 0 0 26.2586,97.99837 71.739686,71.739686 0 0 0 75.19,-2.12497 z"
             style="display:inline;opacity:1;fill:#d8864c;fill-opacity:1;stroke:none;stroke-width:0.529167;stroke-linecap:square;stroke-linejoin:round;stroke-miterlimit:4;stroke-dasharray:none;stroke-opacity:1;paint-order:stroke fill markers;stop-color:#000000"
             id="path1051-7-4-4-1-2-0-2-4-3-5-4-9"
             inkscape:original-d="m 251.65878,-105.58791 a 71.739686,71.739686 0 0 1 -31.81844,-9.49676 71.739686,71.739686 0 0 1 -26.25886,-97.99795 71.739686,71.739686 0 0 1 22.80864,-24.13405 71.739686,71.739686 0 0 0 -66.17994,35.75536 71.739686,71.739686 0 0 0 26.2586,97.99837 71.739686,71.739686 0 0 0 75.19,-2.12497 z" />
          <path
             id="path1051-7-4-4-1-2-6-1-2-9-26-7-7-8"
             style="display:inline;opacity:1;fill:#ffa36d;fill-opacity:1;stroke:none;stroke-width:0.529167;stroke-linecap:square;stroke-linejoin:round;stroke-miterlimit:4;stroke-dasharray:none;stroke-opacity:1;paint-order:stroke fill markers;stop-color:#000000"
             d="m 164.55635,-112.0811 a 71.739686,71.739686 0 0 1 0.93795,-33.19221 71.739686,71.739686 0 0 1 87.86245,-50.72783 71.739686,71.739686 0 0 1 29.21501,15.7851 71.739686,71.739686 0 0 0 -51.66565,-54.67075 71.739686,71.739686 0 0 0 -87.86293,50.72771 71.739686,71.739686 0 0 0 21.51317,72.07798 z"
             inkscape:original-d="m 164.55635,-112.0811 a 71.739686,71.739686 0 0 1 0.93795,-33.19221 71.739686,71.739686 0 0 1 87.86245,-50.72783 71.739686,71.739686 0 0 1 29.21501,15.7851 71.739686,71.739686 0 0 0 -51.66565,-54.67075 71.739686,71.739686 0 0 0 -87.86293,50.72771 71.739686,71.739686 0 0 0 21.51317,72.07798 z" />
          <path
             d="m 158.82818,-213.37383 a 71.739686,71.739686 0 0 1 33.19221,0.93795 71.739686,71.739686 0 0 1 50.72784,87.86245 71.739686,71.739686 0 0 1 -15.78511,29.215013 71.739686,71.739686 0 0 0 54.67076,-51.665653 71.739686,71.739686 0 0 0 -50.72771,-87.86293 71.739686,71.739686 0 0 0 -72.07799,21.51317 z"
             style="display:inline;opacity:1;fill:#a45c1f;fill-opacity:1;stroke:none;stroke-width:0.529167;stroke-linecap:square;stroke-linejoin:round;stroke-miterlimit:4;stroke-dasharray:none;stroke-opacity:1;paint-order:stroke fill markers;stop-color:#000000"
             id="path1051-7-4-4-1-2-6-4-3-3-7-00-1-9-1"
             inkscape:original-d="m 158.82818,-213.37383 a 71.739686,71.739686 0 0 1 33.19221,0.93795 71.739686,71.739686 0 0 1 50.72784,87.86245 71.739686,71.739686 0 0 1 -15.78511,29.215013 71.739686,71.739686 0 0 0 54.67076,-51.665653 71.739686,71.739686 0 0 0 -50.72771,-87.86293 71.739686,71.739686 0 0 0 -72.07799,21.51317 z" />
        </g>
        <g
           id="g2950-6-8-1-4"
           style="display:inline;opacity:1;filter:url(#filter3387-1-2-9-2)"
           transform="translate(88.749119,231.35937)">
          <path
             d="m 244.64313,-229.64554 a 71.739686,71.739686 0 0 1 7.68479,32.30397 71.739686,71.739686 0 0 1 -71.73928,71.73981 71.739686,71.739686 0 0 1 -32.30502,-7.68584 71.739686,71.739686 0 0 0 64.05502,39.435843 71.739686,71.739686 0 0 0 71.73978,-71.739813 71.739686,71.739686 0 0 0 -39.43529,-64.05397 z"
             style="display:inline;opacity:1;fill:#c17425;fill-opacity:1;stroke:none;stroke-width:0.529167;stroke-linecap:square;stroke-linejoin:round;stroke-miterlimit:4;stroke-dasharray:none;stroke-opacity:1;paint-order:stroke fill markers;stop-color:#000000"
             id="path1051-7-4-4-1-7-6-4-6-0-0"
             inkscape:original-d="m 244.64313,-229.64554 a 71.739686,71.739686 0 0 1 7.68479,32.30397 71.739686,71.739686 0 0 1 -71.73928,71.73981 71.739686,71.739686 0 0 1 -32.30502,-7.68584 71.739686,71.739686 0 0 0 64.05502,39.435843 71.739686,71.739686 0 0 0 71.73978,-71.739813 71.739686,71.739686 0 0 0 -39.43529,-64.05397 z" />
          <path
             id="path1051-7-4-4-1-2-0-2-5-2-1-8"
             style="display:inline;opacity:1;fill:#d8864c;fill-opacity:1;stroke:none;stroke-width:0.529167;stroke-linecap:square;stroke-linejoin:round;stroke-miterlimit:4;stroke-dasharray:none;stroke-opacity:1;paint-order:stroke fill markers;stop-color:#000000"
             d="m 251.65878,-105.58791 a 71.739686,71.739686 0 0 1 -31.81844,-9.49676 71.739686,71.739686 0 0 1 -26.25886,-97.99795 71.739686,71.739686 0 0 1 22.80864,-24.13405 71.739686,71.739686 0 0 0 -66.17994,35.75536 71.739686,71.739686 0 0 0 26.2586,97.99837 71.739686,71.739686 0 0 0 75.19,-2.12497 z"
             inkscape:original-d="m 251.65878,-105.58791 a 71.739686,71.739686 0 0 1 -31.81844,-9.49676 71.739686,71.739686 0 0 1 -26.25886,-97.99795 71.739686,71.739686 0 0 1 22.80864,-24.13405 71.739686,71.739686 0 0 0 -66.17994,35.75536 71.739686,71.739686 0 0 0 26.2586,97.99837 71.739686,71.739686 0 0 0 75.19,-2.12497 z" />
          <path
             d="m 164.55635,-112.0811 a 71.739686,71.739686 0 0 1 0.93795,-33.19221 71.739686,71.739686 0 0 1 87.86245,-50.72783 71.739686,71.739686 0 0 1 29.21501,15.7851 71.739686,71.739686 0 0 0 -51.66565,-54.67075 71.739686,71.739686 0 0 0 -87.86293,50.72771 71.739686,71.739686 0 0 0 21.51317,72.07798 z"
             style="display:inline;opacity:1;fill:#ffa36d;fill-opacity:1;stroke:none;stroke-width:0.529167;stroke-linecap:square;stroke-linejoin:round;stroke-miterlimit:4;stroke-dasharray:none;stroke-opacity:1;paint-order:stroke fill markers;stop-color:#000000"
             id="path1051-7-4-4-1-2-6-1-2-6-3-5-1"
             inkscape:original-d="m 164.55635,-112.0811 a 71.739686,71.739686 0 0 1 0.93795,-33.19221 71.739686,71.739686 0 0 1 87.86245,-50.72783 71.739686,71.739686 0 0 1 29.21501,15.7851 71.739686,71.739686 0 0 0 -51.66565,-54.67075 71.739686,71.739686 0 0 0 -87.86293,50.72771 71.739686,71.739686 0 0 0 21.51317,72.07798 z" />
          <path
             id="path1051-7-4-4-1-2-6-4-3-3-5-8-6-8"
             style="display:inline;opacity:1;fill:#a45c1f;fill-opacity:1;stroke:none;stroke-width:0.529167;stroke-linecap:square;stroke-linejoin:round;stroke-miterlimit:4;stroke-dasharray:none;stroke-opacity:1;paint-order:stroke fill markers;stop-color:#000000"
             d="m 158.82818,-213.37383 a 71.739686,71.739686 0 0 1 33.19221,0.93795 71.739686,71.739686 0 0 1 50.72784,87.86245 71.739686,71.739686 0 0 1 -15.78511,29.215013 71.739686,71.739686 0 0 0 54.67076,-51.665653 71.739686,71.739686 0 0 0 -50.72771,-87.86293 71.739686,71.739686 0 0 0 -72.07799,21.51317 z"
             inkscape:original-d="m 158.82818,-213.37383 a 71.739686,71.739686 0 0 1 33.19221,0.93795 71.739686,71.739686 0 0 1 50.72784,87.86245 71.739686,71.739686 0 0 1 -15.78511,29.215013 71.739686,71.739686 0 0 0 54.67076,-51.665653 71.739686,71.739686 0 0 0 -50.72771,-87.86293 71.739686,71.739686 0 0 0 -72.07799,21.51317 z" />
        </g>
        <path
           d="m 308.46485,27.255925 a 22.128618,22.194526 0 0 0 -22.07119,22.19432 22.128618,22.194526 0 0 0 11.8552,19.65781 22.128618,22.194526 0 0 1 -5.74899,0.91839 22.128618,22.194526 0 0 1 -0.57534,0.006 22.128618,22.194526 0 0 1 -21.77903,-18.26649 35.92825,36.035258 0 0 0 -3.97623,16.47798 35.92825,36.035258 0 0 0 35.928,36.035365 35.92825,36.035258 0 0 0 27.79519,-13.202225 35.92825,36.035258 0 0 0 4.59816,-7.24623 22.128618,22.194526 0 0 0 0.009,-0.0229 22.128618,22.194526 0 0 0 0.0513,-0.13503 22.128618,22.194526 0 0 0 0.0506,-0.13504 22.128618,22.194526 0 0 0 0.0501,-0.13553 22.128618,22.194526 0 0 0 0.0493,-0.13571 22.128618,22.194526 0 0 0 0.0478,-0.13587 22.128618,22.194526 0 0 0 0.0473,-0.13637 22.128618,22.194526 0 0 0 0.0464,-0.13671 22.128618,22.194526 0 0 0 0.0458,-0.13705 22.128618,22.194526 0 0 0 0.0451,-0.13723 22.128618,22.194526 0 0 0 0.0437,-0.13755 22.128618,22.194526 0 0 0 0.0431,-0.13788 22.128618,22.194526 0 0 0 0.0416,-0.13806 22.128618,22.194526 0 0 0 0.0411,-0.1384 22.128618,22.194526 0 0 0 0.0403,-0.1389 22.128618,22.194526 0 0 0 0.0396,-0.1389 22.128618,22.194526 0 0 0 0.0382,-0.13924 22.128618,22.194526 0 0 0 0.0373,-0.1394 22.128618,22.194526 0 0 0 0.0367,-0.13957 22.128618,22.194526 0 0 0 0.036,-0.13991 22.128618,22.194526 0 0 0 0.0347,-0.14007 22.128618,22.194526 0 0 0 0.034,-0.14042 22.128618,22.194526 0 0 0 0.0333,-0.14041 22.128618,22.194526 0 0 0 0.0318,-0.14092 22.128618,22.194526 0 0 0 0.0314,-0.14091 22.128618,22.194526 0 0 0 0.0305,-0.14127 22.128618,22.194526 0 0 0 0.0292,-0.1414 22.128618,22.194526 0 0 0 0.0284,-0.1416 22.128618,22.194526 0 0 0 0.0278,-0.14159 22.128618,22.194526 0 0 0 0.0263,-0.1421 22.128618,22.194526 0 0 0 0.0256,-0.14224 22.128618,22.194526 0 0 0 0.025,-0.14227 22.128618,22.194526 0 0 0 0.0235,-0.14243 22.128618,22.194526 0 0 0 0.0228,-0.14244 22.128618,22.194526 0 0 0 0.0223,-0.14275 22.128618,22.194526 0 0 0 0.0208,-0.14277 22.128618,22.194526 0 0 0 0.0201,-0.14294 22.128618,22.194526 0 0 0 0.0195,-0.14327 22.128618,22.194526 0 0 0 0.0181,-0.14327 22.128618,22.194526 0 0 0 0.0173,-0.14327 22.128618,22.194526 0 0 0 0.0168,-0.1436 22.128618,22.194526 0 0 0 0.015,-0.14361 22.128618,22.194526 0 0 0 0.015,-0.14362 22.128618,22.194526 0 0 0 0.0134,-0.14376 22.128618,22.194526 0 0 0 0.0117,-0.14412 22.128618,22.194526 0 0 0 0.0118,-0.14378 22.128618,22.194526 0 0 0 0.01,-0.1441 22.128618,22.194526 0 0 0 0.01,-0.14412 22.128618,22.194526 0 0 0 0.009,-0.14412 22.128618,22.194526 0 0 0 0.009,-0.14427 22.128618,22.194526 0 0 0 0.006,-0.14428 22.128618,22.194526 0 0 0 0.007,-0.14412 22.128618,22.194526 0 0 0 0.006,-0.14428 22.128618,22.194526 0 0 0 0.006,-0.14461 22.128618,22.194526 0 0 0 0.006,-0.14429 22.128618,22.194526 0 0 0 0,-0.14428 22.128618,22.194526 0 0 0 0,-0.14428 22.128618,22.194526 0 0 0 1.7e-4,-0.14461 22.128618,22.194526 0 0 0 0,-0.0578 22.128618,22.194526 0 0 0 0,-0.14428 22.128618,22.194526 0 0 0 0,-0.14428 22.128618,22.194526 0 0 0 0,-0.14463 22.128618,22.194526 0 0 0 -0.006,-0.14426 22.128618,22.194526 0 0 0 -0.006,-0.14428 22.128618,22.194526 0 0 0 -0.006,-0.14446 22.128618,22.194526 0 0 0 -0.006,-0.14427 22.128618,22.194526 0 0 0 -0.006,-0.14413 22.128618,22.194526 0 0 0 -0.009,-0.14426 22.128618,22.194526 0 0 0 -0.009,-0.14413 22.128618,22.194526 0 0 0 -0.01,-0.14411 22.128618,22.194526 0 0 0 -0.01,-0.1441 22.128618,22.194526 0 0 0 -0.0117,-0.14378 22.128618,22.194526 0 0 0 -0.0134,-0.14378 22.128618,22.194526 0 0 0 -0.0134,-0.14375 22.128618,22.194526 0 0 0 -0.015,-0.14363 22.128618,22.194526 0 0 0 -0.0168,-0.14361 22.128618,22.194526 0 0 0 -0.0168,-0.1436 22.128618,22.194526 0 0 0 -0.0173,-0.14328 22.128618,22.194526 0 0 0 -0.0188,-0.14328 22.128618,22.194526 0 0 0 -0.0195,-0.14292 22.128618,22.194526 0 0 0 -0.0201,-0.1431 22.128618,22.194526 0 0 0 -0.0214,-0.14277 22.128618,22.194526 0 0 0 -0.0223,-0.14276 22.128618,22.194526 0 0 0 -0.0235,-0.14245 22.128618,22.194526 0 0 0 -0.0244,-0.14225 22.128618,22.194526 0 0 0 -0.025,-0.14227 22.128618,22.194526 0 0 0 -0.0256,-0.14191 22.128618,22.194526 0 0 0 -0.027,-0.14195 22.128618,22.194526 0 0 0 -0.0278,-0.14175 22.128618,22.194526 0 0 0 -0.0284,-0.14142 22.128618,22.194526 0 0 0 -0.0299,-0.14142 22.128618,22.194526 0 0 0 -0.0305,-0.14092 22.128618,22.194526 0 0 0 -0.0314,-0.1409 22.128618,22.194526 0 0 0 -0.0326,-0.14077 22.128618,22.194526 0 0 0 -0.0333,-0.14041 22.128618,22.194526 0 0 0 -0.0341,-0.14041 22.128618,22.194526 0 0 0 -0.0355,-0.13991 22.128618,22.194526 0 0 0 -0.036,-0.13989 22.128618,22.194526 0 0 0 -0.0369,-0.13959 22.128618,22.194526 0 0 0 -0.0376,-0.1394 22.128618,22.194526 0 0 0 -0.0388,-0.13889 22.128618,22.194526 0 0 0 -0.0396,-0.13874 22.128618,22.194526 0 0 0 -0.0403,-0.13874 22.128618,22.194526 0 0 0 -0.0416,-0.13839 22.128618,22.194526 0 0 0 -0.0423,-0.13804 22.128618,22.194526 0 0 0 -0.043,-0.13758 22.128618,22.194526 0 0 0 -0.0445,-0.13754 22.128618,22.194526 0 0 0 -0.0451,-0.13706 22.128618,22.194526 0 0 0 -0.0458,-0.13704 22.128618,22.194526 0 0 0 -0.0464,-0.13655 22.128618,22.194526 0 0 0 -0.0478,-0.13636 22.128618,22.194526 0 0 0 -0.0486,-0.13571 22.128618,22.194526 0 0 0 -0.0501,-0.13571 22.128618,22.194526 0 0 0 -0.0501,-0.1352 22.128618,22.194526 0 0 0 -0.0513,-0.13504 22.128618,22.194526 0 0 0 -0.0521,-0.13467 22.128618,22.194526 0 0 0 -0.0533,-0.1342 22.128618,22.194526 0 0 0 -0.0533,-0.13403 22.128618,22.194526 0 0 0 -0.0549,-0.1337 22.128618,22.194526 0 0 0 -0.0555,-0.13317 22.128618,22.194526 0 0 0 -0.0562,-0.13285 22.128618,22.194526 0 0 0 -0.0577,-0.13235 22.128618,22.194526 0 0 0 -0.0583,-0.132 22.128618,22.194526 0 0 0 -0.0589,-0.13182 22.128618,22.194526 0 0 0 -0.0597,-0.13134 22.128618,22.194526 0 0 0 -0.0612,-0.13082 22.128618,22.194526 0 0 0 -0.0612,-0.13049 22.128618,22.194526 0 0 0 -0.0623,-0.13032 22.128618,22.194526 0 0 0 -0.0632,-0.12981 22.128618,22.194526 0 0 0 -0.0638,-0.12934 22.128618,22.194526 0 0 0 -0.0652,-0.12881 22.128618,22.194526 0 0 0 -0.0659,-0.12846 22.128618,22.194526 0 0 0 -0.0665,-0.12832 22.128618,22.194526 0 0 0 -0.0674,-0.12746 22.128618,22.194526 0 0 0 -0.0679,-0.12713 22.128618,22.194526 0 0 0 -0.0695,-0.12662 22.128618,22.194526 0 0 0 -0.0699,-0.12629 22.128618,22.194526 0 0 0 -0.0709,-0.12561 22.128618,22.194526 0 0 0 -0.0714,-0.12544 22.128618,22.194526 0 0 0 -0.0724,-0.12478 22.128618,22.194526 0 0 0 -0.0731,-0.12443 22.128618,22.194526 0 0 0 -0.0741,-0.12412 22.128618,22.194526 0 0 0 -0.0748,-0.12325 22.128618,22.194526 0 0 0 -0.0754,-0.12292 22.128618,22.194526 0 0 0 -0.0765,-0.12259 22.128618,22.194526 0 0 0 -0.0771,-0.12174 22.128618,22.194526 0 0 0 -0.0779,-0.12142 22.128618,22.194526 0 0 0 -0.0787,-0.12091 22.128618,22.194526 0 0 0 -0.0798,-0.12057 22.128618,22.194526 0 0 0 -0.0803,-0.11989 22.128618,22.194526 0 0 0 -0.0809,-0.11938 22.128618,22.194526 0 0 0 -0.0818,-0.11874 22.128618,22.194526 0 0 0 -0.083,-0.11838 22.128618,22.194526 0 0 0 -0.0833,-0.11788 22.128618,22.194526 0 0 0 -0.0842,-0.11703 22.128618,22.194526 0 0 0 -0.085,-0.11688 22.128618,22.194526 0 0 0 -0.0857,-0.11602 22.128618,22.194526 0 0 0 -0.0865,-0.11553 22.128618,22.194526 0 0 0 -0.087,-0.11503 22.128618,22.194526 0 0 0 -0.0881,-0.11449 22.128618,22.194526 0 0 0 -0.0885,-0.1137 22.128618,22.194526 0 0 0 -0.0896,-0.11317 22.128618,22.194526 0 0 0 -0.09,-0.11266 22.128618,22.194526 0 0 0 -0.0909,-0.11216 22.128618,22.194526 0 0 0 -0.0917,-0.1115 22.128618,22.194526 0 0 0 -0.0922,-0.11098 22.128618,22.194526 0 0 0 -0.0929,-0.10998 22.128618,22.194526 0 0 0 -0.0937,-0.10996 22.128618,22.194526 0 0 0 -0.0946,-0.10914 22.128618,22.194526 0 0 0 -0.0952,-0.10853 22.128618,22.194526 0 0 0 -0.0958,-0.10776 22.128618,22.194526 0 0 0 -0.0964,-0.10711 22.128618,22.194526 0 0 0 -0.0973,-0.10644 22.128618,22.194526 0 0 0 -0.0979,-0.10592 22.128618,22.194526 0 0 0 -0.0986,-0.10539 22.128618,22.194526 0 0 0 -0.0991,-0.10461 22.128618,22.194526 0 0 0 -0.10007,-0.10396 22.128618,22.194526 0 0 0 -0.10042,-0.10321 22.128618,22.194526 0 0 0 -0.1016,-0.10276 22.128618,22.194526 0 0 0 -0.10192,-0.10191 22.128618,22.194526 0 0 0 -0.10246,-0.10108 22.128618,22.194526 0 0 0 -0.10322,-0.10067 22.128618,22.194526 0 0 0 -0.10397,-0.0999 22.128618,22.194526 0 0 0 -0.10442,-0.0992 22.128618,22.194526 0 0 0 -0.10517,-0.0987 22.128618,22.194526 0 0 0 -0.10592,-0.0979 22.128618,22.194526 0 0 0 -0.10658,-0.0973 22.128618,22.194526 0 0 0 -0.1068,-0.0965 22.128618,22.194526 0 0 0 -0.10797,-0.0958 22.128618,22.194526 0 0 0 -0.043,-0.0376 22.128618,22.194526 0 0 0 2.14676,-8.26977 8.3418288,8.366674 0 0 0 4.9939,-7.66311 8.3418288,8.366674 0 0 0 -0.42137,-2.62535 8.3418288,8.366674 0 0 1 -4.70809,1.46013 8.3418288,8.366674 0 0 1 -1.1445,-0.079 22.128618,22.194526 0 0 0 -20.80724,-14.64046 22.128618,22.194526 0 0 0 -0.0577,0 z"
           style="display:inline;opacity:0;fill:#000000;fill-opacity:1;stroke-width:1.27848;stroke-linecap:square;stroke-linejoin:round;paint-order:stroke fill markers;stop-color:#000000"
           id="path1051-8-4-6-9-7-3-7-2-8" />
        <path
           transform="matrix(1.2708154,0,0,1.2708154,-486.32789,-401.99317)"
           d="m 626.99157,329.56758 a 22.128618,22.194526 0 0 0 -22.07119,22.19432 22.128618,22.194526 0 0 0 11.8552,19.65781 22.128618,22.194526 0 0 1 -5.74899,0.91839 22.128618,22.194526 0 0 1 -0.57534,0.006 22.128618,22.194526 0 0 1 -21.77903,-18.26649 35.92825,36.035258 0 0 0 -3.97623,16.47798 35.92825,36.035258 0 0 0 35.928,36.03536 35.92825,36.035258 0 0 0 27.79519,-13.20222 35.92825,36.035258 0 0 0 4.59816,-7.24623 22.128618,22.194526 0 0 0 0.009,-0.0229 22.128618,22.194526 0 0 0 0.0513,-0.13503 22.128618,22.194526 0 0 0 0.0506,-0.13504 22.128618,22.194526 0 0 0 0.0501,-0.13553 22.128618,22.194526 0 0 0 0.0493,-0.13571 22.128618,22.194526 0 0 0 0.0478,-0.13587 22.128618,22.194526 0 0 0 0.0473,-0.13637 22.128618,22.194526 0 0 0 0.0464,-0.13671 22.128618,22.194526 0 0 0 0.0458,-0.13705 22.128618,22.194526 0 0 0 0.0451,-0.13723 22.128618,22.194526 0 0 0 0.0437,-0.13755 22.128618,22.194526 0 0 0 0.0431,-0.13788 22.128618,22.194526 0 0 0 0.0416,-0.13806 22.128618,22.194526 0 0 0 0.0411,-0.1384 22.128618,22.194526 0 0 0 0.0403,-0.1389 22.128618,22.194526 0 0 0 0.0396,-0.1389 22.128618,22.194526 0 0 0 0.0382,-0.13924 22.128618,22.194526 0 0 0 0.0373,-0.1394 22.128618,22.194526 0 0 0 0.0367,-0.13957 22.128618,22.194526 0 0 0 0.036,-0.13991 22.128618,22.194526 0 0 0 0.0347,-0.14007 22.128618,22.194526 0 0 0 0.034,-0.14042 22.128618,22.194526 0 0 0 0.0333,-0.14041 22.128618,22.194526 0 0 0 0.0318,-0.14092 22.128618,22.194526 0 0 0 0.0314,-0.14091 22.128618,22.194526 0 0 0 0.0305,-0.14127 22.128618,22.194526 0 0 0 0.0292,-0.1414 22.128618,22.194526 0 0 0 0.0284,-0.1416 22.128618,22.194526 0 0 0 0.0278,-0.14159 22.128618,22.194526 0 0 0 0.0263,-0.1421 22.128618,22.194526 0 0 0 0.0256,-0.14225 22.128618,22.194526 0 0 0 0.025,-0.14227 22.128618,22.194526 0 0 0 0.0235,-0.14243 22.128618,22.194526 0 0 0 0.0228,-0.14244 22.128618,22.194526 0 0 0 0.0223,-0.14275 22.128618,22.194526 0 0 0 0.0208,-0.14277 22.128618,22.194526 0 0 0 0.0201,-0.14294 22.128618,22.194526 0 0 0 0.0195,-0.14327 22.128618,22.194526 0 0 0 0.0181,-0.14327 22.128618,22.194526 0 0 0 0.0173,-0.14327 22.128618,22.194526 0 0 0 0.0168,-0.1436 22.128618,22.194526 0 0 0 0.015,-0.14361 22.128618,22.194526 0 0 0 0.015,-0.14362 22.128618,22.194526 0 0 0 0.0134,-0.14376 22.128618,22.194526 0 0 0 0.0117,-0.14412 22.128618,22.194526 0 0 0 0.0118,-0.14378 22.128618,22.194526 0 0 0 0.01,-0.1441 22.128618,22.194526 0 0 0 0.01,-0.14412 22.128618,22.194526 0 0 0 0.009,-0.14412 22.128618,22.194526 0 0 0 0.009,-0.14427 22.128618,22.194526 0 0 0 0.006,-0.14428 22.128618,22.194526 0 0 0 0.007,-0.14412 22.128618,22.194526 0 0 0 0.006,-0.14428 22.128618,22.194526 0 0 0 0.006,-0.14461 22.128618,22.194526 0 0 0 0.006,-0.14429 22.128618,22.194526 0 0 0 0,-0.14428 22.128618,22.194526 0 0 0 0,-0.14428 22.128618,22.194526 0 0 0 1.7e-4,-0.14461 22.128618,22.194526 0 0 0 0,-0.0578 22.128618,22.194526 0 0 0 0,-0.14428 22.128618,22.194526 0 0 0 0,-0.14428 22.128618,22.194526 0 0 0 0,-0.14462 22.128618,22.194526 0 0 0 -0.006,-0.14427 22.128618,22.194526 0 0 0 -0.006,-0.14428 22.128618,22.194526 0 0 0 -0.006,-0.14446 22.128618,22.194526 0 0 0 -0.006,-0.14427 22.128618,22.194526 0 0 0 -0.006,-0.14412 22.128618,22.194526 0 0 0 -0.009,-0.14427 22.128618,22.194526 0 0 0 -0.009,-0.14412 22.128618,22.194526 0 0 0 -0.01,-0.14412 22.128618,22.194526 0 0 0 -0.01,-0.1441 22.128618,22.194526 0 0 0 -0.0117,-0.14378 22.128618,22.194526 0 0 0 -0.0134,-0.14378 22.128618,22.194526 0 0 0 -0.0134,-0.14375 22.128618,22.194526 0 0 0 -0.015,-0.14363 22.128618,22.194526 0 0 0 -0.0168,-0.14361 22.128618,22.194526 0 0 0 -0.0168,-0.1436 22.128618,22.194526 0 0 0 -0.0173,-0.14327 22.128618,22.194526 0 0 0 -0.0188,-0.14328 22.128618,22.194526 0 0 0 -0.0195,-0.14293 22.128618,22.194526 0 0 0 -0.0201,-0.1431 22.128618,22.194526 0 0 0 -0.0214,-0.14276 22.128618,22.194526 0 0 0 -0.0223,-0.14277 22.128618,22.194526 0 0 0 -0.0235,-0.14244 22.128618,22.194526 0 0 0 -0.0244,-0.14226 22.128618,22.194526 0 0 0 -0.025,-0.14226 22.128618,22.194526 0 0 0 -0.0256,-0.14192 22.128618,22.194526 0 0 0 -0.027,-0.14194 22.128618,22.194526 0 0 0 -0.0278,-0.14175 22.128618,22.194526 0 0 0 -0.0284,-0.14142 22.128618,22.194526 0 0 0 -0.0299,-0.14143 22.128618,22.194526 0 0 0 -0.0305,-0.14091 22.128618,22.194526 0 0 0 -0.0314,-0.14091 22.128618,22.194526 0 0 0 -0.0326,-0.14076 22.128618,22.194526 0 0 0 -0.0333,-0.14041 22.128618,22.194526 0 0 0 -0.0341,-0.14042 22.128618,22.194526 0 0 0 -0.0355,-0.1399 22.128618,22.194526 0 0 0 -0.036,-0.1399 22.128618,22.194526 0 0 0 -0.0369,-0.13958 22.128618,22.194526 0 0 0 -0.0376,-0.13941 22.128618,22.194526 0 0 0 -0.0388,-0.13889 22.128618,22.194526 0 0 0 -0.0396,-0.13874 22.128618,22.194526 0 0 0 -0.0403,-0.13873 22.128618,22.194526 0 0 0 -0.0416,-0.13839 22.128618,22.194526 0 0 0 -0.0423,-0.13805 22.128618,22.194526 0 0 0 -0.043,-0.13757 22.128618,22.194526 0 0 0 -0.0445,-0.13755 22.128618,22.194526 0 0 0 -0.0451,-0.13705 22.128618,22.194526 0 0 0 -0.0458,-0.13705 22.128618,22.194526 0 0 0 -0.0464,-0.13654 22.128618,22.194526 0 0 0 -0.0478,-0.13637 22.128618,22.194526 0 0 0 -0.0486,-0.13571 22.128618,22.194526 0 0 0 -0.0501,-0.13571 22.128618,22.194526 0 0 0 -0.0501,-0.13519 22.128618,22.194526 0 0 0 -0.0513,-0.13504 22.128618,22.194526 0 0 0 -0.0521,-0.13468 22.128618,22.194526 0 0 0 -0.0533,-0.1342 22.128618,22.194526 0 0 0 -0.0533,-0.13403 22.128618,22.194526 0 0 0 -0.0549,-0.13369 22.128618,22.194526 0 0 0 -0.0555,-0.13317 22.128618,22.194526 0 0 0 -0.0562,-0.13285 22.128618,22.194526 0 0 0 -0.0577,-0.13235 22.128618,22.194526 0 0 0 -0.0583,-0.132 22.128618,22.194526 0 0 0 -0.0589,-0.13183 22.128618,22.194526 0 0 0 -0.0597,-0.13133 22.128618,22.194526 0 0 0 -0.0612,-0.13083 22.128618,22.194526 0 0 0 -0.0612,-0.13048 22.128618,22.194526 0 0 0 -0.0623,-0.13033 22.128618,22.194526 0 0 0 -0.0632,-0.12981 22.128618,22.194526 0 0 0 -0.0638,-0.12933 22.128618,22.194526 0 0 0 -0.0652,-0.12881 22.128618,22.194526 0 0 0 -0.0659,-0.12846 22.128618,22.194526 0 0 0 -0.0665,-0.12832 22.128618,22.194526 0 0 0 -0.0674,-0.12746 22.128618,22.194526 0 0 0 -0.0679,-0.12714 22.128618,22.194526 0 0 0 -0.0695,-0.12661 22.128618,22.194526 0 0 0 -0.0699,-0.12629 22.128618,22.194526 0 0 0 -0.0709,-0.12562 22.128618,22.194526 0 0 0 -0.0714,-0.12543 22.128618,22.194526 0 0 0 -0.0724,-0.12478 22.128618,22.194526 0 0 0 -0.0731,-0.12444 22.128618,22.194526 0 0 0 -0.0741,-0.12411 22.128618,22.194526 0 0 0 -0.0748,-0.12326 22.128618,22.194526 0 0 0 -0.0754,-0.12292 22.128618,22.194526 0 0 0 -0.0765,-0.12258 22.128618,22.194526 0 0 0 -0.0771,-0.12174 22.128618,22.194526 0 0 0 -0.0779,-0.12142 22.128618,22.194526 0 0 0 -0.0787,-0.12091 22.128618,22.194526 0 0 0 -0.0798,-0.12057 22.128618,22.194526 0 0 0 -0.0803,-0.11989 22.128618,22.194526 0 0 0 -0.0809,-0.11939 22.128618,22.194526 0 0 0 -0.0818,-0.11873 22.128618,22.194526 0 0 0 -0.083,-0.11839 22.128618,22.194526 0 0 0 -0.0833,-0.11787 22.128618,22.194526 0 0 0 -0.0842,-0.11704 22.128618,22.194526 0 0 0 -0.085,-0.11687 22.128618,22.194526 0 0 0 -0.0857,-0.11602 22.128618,22.194526 0 0 0 -0.0865,-0.11553 22.128618,22.194526 0 0 0 -0.087,-0.11503 22.128618,22.194526 0 0 0 -0.0881,-0.1145 22.128618,22.194526 0 0 0 -0.0885,-0.11369 22.128618,22.194526 0 0 0 -0.0896,-0.11317 22.128618,22.194526 0 0 0 -0.09,-0.11267 22.128618,22.194526 0 0 0 -0.0909,-0.11215 22.128618,22.194526 0 0 0 -0.0917,-0.1115 22.128618,22.194526 0 0 0 -0.0922,-0.11098 22.128618,22.194526 0 0 0 -0.0929,-0.10998 22.128618,22.194526 0 0 0 -0.0937,-0.10997 22.128618,22.194526 0 0 0 -0.0946,-0.10914 22.128618,22.194526 0 0 0 -0.0952,-0.10852 22.128618,22.194526 0 0 0 -0.0958,-0.10776 22.128618,22.194526 0 0 0 -0.0964,-0.10712 22.128618,22.194526 0 0 0 -0.0973,-0.10644 22.128618,22.194526 0 0 0 -0.0979,-0.10592 22.128618,22.194526 0 0 0 -0.0986,-0.10538 22.128618,22.194526 0 0 0 -0.0991,-0.10462 22.128618,22.194526 0 0 0 -0.10008,-0.10396 22.128618,22.194526 0 0 0 -0.10041,-0.1032 22.128618,22.194526 0 0 0 -0.1016,-0.10277 22.128618,22.194526 0 0 0 -0.10192,-0.1019 22.128618,22.194526 0 0 0 -0.10246,-0.10108 22.128618,22.194526 0 0 0 -0.10322,-0.10068 22.128618,22.194526 0 0 0 -0.10398,-0.0999 22.128618,22.194526 0 0 0 -0.10442,-0.0992 22.128618,22.194526 0 0 0 -0.10516,-0.0987 22.128618,22.194526 0 0 0 -0.10593,-0.0979 22.128618,22.194526 0 0 0 -0.10658,-0.0973 22.128618,22.194526 0 0 0 -0.10679,-0.0965 22.128618,22.194526 0 0 0 -0.10798,-0.0958 22.128618,22.194526 0 0 0 -0.043,-0.0376 22.128618,22.194526 0 0 0 2.14676,-8.26976 8.3418288,8.366674 0 0 0 4.9939,-7.66311 8.3418288,8.366674 0 0 0 -0.42137,-2.62535 8.3418288,8.366674 0 0 1 -4.70808,1.46012 8.3418288,8.366674 0 0 1 -1.1445,-0.079 22.128618,22.194526 0 0 0 -20.80726,-14.64046 22.128618,22.194526 0 0 0 -0.0577,0 z"
           style="display:inline;opacity:0.336601;fill:#000000;fill-opacity:1;stroke-width:1.27848;stroke-linecap:square;stroke-linejoin:round;paint-order:stroke fill markers;filter:url(#filter3394);stop-color:#000000"
           id="path1051-8-4-6-9-7-3-7-2-8-2" />
        <path
           d="m 310.46264,16.826365 a 28.121388,28.205144 0 0 0 -28.04841,28.20488 28.121388,28.205144 0 0 0 15.06577,24.98145 28.121388,28.205144 0 0 1 -7.30591,1.16711 28.121388,28.205144 0 0 1 -0.73115,0.008 28.121388,28.205144 0 0 1 -27.67713,-23.21334 45.658172,45.79416 0 0 0 -5.05305,20.94047 45.658172,45.79416 0 0 0 45.65786,45.794295 45.658172,45.79416 0 0 0 35.32255,-16.777595 45.658172,45.79416 0 0 0 5.84341,-9.20862 28.121388,28.205144 0 0 0 0.0114,-0.0291 28.121388,28.205144 0 0 0 0.0652,-0.1716 28.121388,28.205144 0 0 0 0.0643,-0.17161 28.121388,28.205144 0 0 0 0.0637,-0.17223 28.121388,28.205144 0 0 0 0.0626,-0.17246 28.121388,28.205144 0 0 0 0.0607,-0.17267 28.121388,28.205144 0 0 0 0.0601,-0.1733 28.121388,28.205144 0 0 0 0.059,-0.17373 28.121388,28.205144 0 0 0 0.0582,-0.17417 28.121388,28.205144 0 0 0 0.0573,-0.17439 28.121388,28.205144 0 0 0 0.0555,-0.1748 28.121388,28.205144 0 0 0 0.0548,-0.17522 28.121388,28.205144 0 0 0 0.0529,-0.17545 28.121388,28.205144 0 0 0 0.0522,-0.17588 28.121388,28.205144 0 0 0 0.0512,-0.17652 28.121388,28.205144 0 0 0 0.0503,-0.17652 28.121388,28.205144 0 0 0 0.0485,-0.17694 28.121388,28.205144 0 0 0 0.0474,-0.17716 28.121388,28.205144 0 0 0 0.0466,-0.17736 28.121388,28.205144 0 0 0 0.0457,-0.1778 28.121388,28.205144 0 0 0 0.0441,-0.17801 28.121388,28.205144 0 0 0 0.0432,-0.17844 28.121388,28.205144 0 0 0 0.0423,-0.17844 28.121388,28.205144 0 0 0 0.0404,-0.17908 28.121388,28.205144 0 0 0 0.0399,-0.17907 28.121388,28.205144 0 0 0 0.0388,-0.17953 28.121388,28.205144 0 0 0 0.0371,-0.17969 28.121388,28.205144 0 0 0 0.0361,-0.17995 28.121388,28.205144 0 0 0 0.0353,-0.17993 28.121388,28.205144 0 0 0 0.0334,-0.18059 28.121388,28.205144 0 0 0 0.0325,-0.18077 28.121388,28.205144 0 0 0 0.0318,-0.1808 28.121388,28.205144 0 0 0 0.0299,-0.181 28.121388,28.205144 0 0 0 0.029,-0.18102 28.121388,28.205144 0 0 0 0.0283,-0.18141 28.121388,28.205144 0 0 0 0.0264,-0.18143 28.121388,28.205144 0 0 0 0.0255,-0.18165 28.121388,28.205144 0 0 0 0.0248,-0.18207 28.121388,28.205144 0 0 0 0.023,-0.18207 28.121388,28.205144 0 0 0 0.022,-0.18207 28.121388,28.205144 0 0 0 0.0213,-0.18249 28.121388,28.205144 0 0 0 0.0191,-0.1825 28.121388,28.205144 0 0 0 0.019,-0.18252 28.121388,28.205144 0 0 0 0.017,-0.18269 28.121388,28.205144 0 0 0 0.0149,-0.18315 28.121388,28.205144 0 0 0 0.015,-0.18272 28.121388,28.205144 0 0 0 0.0127,-0.18312 28.121388,28.205144 0 0 0 0.0127,-0.18315 28.121388,28.205144 0 0 0 0.0114,-0.18315 28.121388,28.205144 0 0 0 0.0114,-0.18334 28.121388,28.205144 0 0 0 0.008,-0.18335 28.121388,28.205144 0 0 0 0.009,-0.18315 28.121388,28.205144 0 0 0 0.008,-0.18336 28.121388,28.205144 0 0 0 0.008,-0.18377 28.121388,28.205144 0 0 0 0.008,-0.18337 28.121388,28.205144 0 0 0 0,-0.18335 28.121388,28.205144 0 0 0 0,-0.18335 28.121388,28.205144 0 0 0 2.2e-4,-0.18378 28.121388,28.205144 0 0 0 0,-0.0735 28.121388,28.205144 0 0 0 0,-0.18335 28.121388,28.205144 0 0 0 0,-0.18335 28.121388,28.205144 0 0 0 0,-0.18379 28.121388,28.205144 0 0 0 -0.008,-0.18334 28.121388,28.205144 0 0 0 -0.008,-0.18335 28.121388,28.205144 0 0 0 -0.008,-0.18358 28.121388,28.205144 0 0 0 -0.008,-0.18334 28.121388,28.205144 0 0 0 -0.008,-0.18315 28.121388,28.205144 0 0 0 -0.0114,-0.18334 28.121388,28.205144 0 0 0 -0.0114,-0.18315 28.121388,28.205144 0 0 0 -0.0127,-0.18315 28.121388,28.205144 0 0 0 -0.0127,-0.18313 28.121388,28.205144 0 0 0 -0.0149,-0.18272 28.121388,28.205144 0 0 0 -0.017,-0.18271 28.121388,28.205144 0 0 0 -0.017,-0.18269 28.121388,28.205144 0 0 0 -0.019,-0.18252 28.121388,28.205144 0 0 0 -0.0213,-0.1825 28.121388,28.205144 0 0 0 -0.0214,-0.18249 28.121388,28.205144 0 0 0 -0.022,-0.18207 28.121388,28.205144 0 0 0 -0.0239,-0.18209 28.121388,28.205144 0 0 0 -0.0248,-0.18163 28.121388,28.205144 0 0 0 -0.0255,-0.18186 28.121388,28.205144 0 0 0 -0.0272,-0.18142 28.121388,28.205144 0 0 0 -0.0283,-0.18143 28.121388,28.205144 0 0 0 -0.0299,-0.18102 28.121388,28.205144 0 0 0 -0.031,-0.18078 28.121388,28.205144 0 0 0 -0.0318,-0.18079 28.121388,28.205144 0 0 0 -0.0325,-0.18035 28.121388,28.205144 0 0 0 -0.0343,-0.18038 28.121388,28.205144 0 0 0 -0.0353,-0.18014 28.121388,28.205144 0 0 0 -0.0361,-0.17972 28.121388,28.205144 0 0 0 -0.038,-0.17973 28.121388,28.205144 0 0 0 -0.0388,-0.17907 28.121388,28.205144 0 0 0 -0.0399,-0.17907 28.121388,28.205144 0 0 0 -0.0414,-0.17888 28.121388,28.205144 0 0 0 -0.0423,-0.17844 28.121388,28.205144 0 0 0 -0.0433,-0.17845 28.121388,28.205144 0 0 0 -0.0451,-0.17778 28.121388,28.205144 0 0 0 -0.0457,-0.17779 28.121388,28.205144 0 0 0 -0.0469,-0.17738 28.121388,28.205144 0 0 0 -0.0478,-0.17716 28.121388,28.205144 0 0 0 -0.0493,-0.17651 28.121388,28.205144 0 0 0 -0.0503,-0.17631 28.121388,28.205144 0 0 0 -0.0512,-0.1763 28.121388,28.205144 0 0 0 -0.0529,-0.17587 28.121388,28.205144 0 0 0 -0.0538,-0.17544 28.121388,28.205144 0 0 0 -0.0547,-0.17482 28.121388,28.205144 0 0 0 -0.0565,-0.1748 28.121388,28.205144 0 0 0 -0.0573,-0.17417 28.121388,28.205144 0 0 0 -0.0582,-0.17416 28.121388,28.205144 0 0 0 -0.059,-0.17352 28.121388,28.205144 0 0 0 -0.0608,-0.1733 28.121388,28.205144 0 0 0 -0.0618,-0.17246 28.121388,28.205144 0 0 0 -0.0637,-0.17247 28.121388,28.205144 0 0 0 -0.0637,-0.1718 28.121388,28.205144 0 0 0 -0.0652,-0.17161 28.121388,28.205144 0 0 0 -0.0662,-0.17115 28.121388,28.205144 0 0 0 -0.0677,-0.17055 28.121388,28.205144 0 0 0 -0.0677,-0.17032 28.121388,28.205144 0 0 0 -0.0698,-0.1699 28.121388,28.205144 0 0 0 -0.0705,-0.16923 28.121388,28.205144 0 0 0 -0.0714,-0.16883 28.121388,28.205144 0 0 0 -0.0733,-0.16819 28.121388,28.205144 0 0 0 -0.0741,-0.16775 28.121388,28.205144 0 0 0 -0.0748,-0.16753 28.121388,28.205144 0 0 0 -0.0759,-0.1669 28.121388,28.205144 0 0 0 -0.0778,-0.16626 28.121388,28.205144 0 0 0 -0.0778,-0.16581 28.121388,28.205144 0 0 0 -0.0792,-0.16563 28.121388,28.205144 0 0 0 -0.0803,-0.16496 28.121388,28.205144 0 0 0 -0.0811,-0.16436 28.121388,28.205144 0 0 0 -0.0829,-0.16369 28.121388,28.205144 0 0 0 -0.0837,-0.16325 28.121388,28.205144 0 0 0 -0.0845,-0.16307 28.121388,28.205144 0 0 0 -0.0857,-0.16198 28.121388,28.205144 0 0 0 -0.0863,-0.16157 28.121388,28.205144 0 0 0 -0.0883,-0.1609 28.121388,28.205144 0 0 0 -0.0888,-0.16049 28.121388,28.205144 0 0 0 -0.0901,-0.15964 28.121388,28.205144 0 0 0 -0.0907,-0.1594 28.121388,28.205144 0 0 0 -0.092,-0.15857 28.121388,28.205144 0 0 0 -0.0929,-0.15814 28.121388,28.205144 0 0 0 -0.0942,-0.15772 28.121388,28.205144 0 0 0 -0.0951,-0.15664 28.121388,28.205144 0 0 0 -0.0958,-0.15621 28.121388,28.205144 0 0 0 -0.0972,-0.15578 28.121388,28.205144 0 0 0 -0.098,-0.15471 28.121388,28.205144 0 0 0 -0.099,-0.1543 28.121388,28.205144 0 0 0 -0.10002,-0.15365 28.121388,28.205144 0 0 0 -0.10141,-0.15323 28.121388,28.205144 0 0 0 -0.10204,-0.15235 28.121388,28.205144 0 0 0 -0.10281,-0.15173 28.121388,28.205144 0 0 0 -0.10396,-0.15088 28.121388,28.205144 0 0 0 -0.10547,-0.15045 28.121388,28.205144 0 0 0 -0.10586,-0.1498 28.121388,28.205144 0 0 0 -0.10701,-0.14873 28.121388,28.205144 0 0 0 -0.10802,-0.14852 28.121388,28.205144 0 0 0 -0.1089,-0.14744 28.121388,28.205144 0 0 0 -0.10993,-0.14682 28.121388,28.205144 0 0 0 -0.11056,-0.14618 28.121388,28.205144 0 0 0 -0.11196,-0.14551 28.121388,28.205144 0 0 0 -0.11247,-0.14448 28.121388,28.205144 0 0 0 -0.11386,-0.14382 28.121388,28.205144 0 0 0 -0.11437,-0.14318 28.121388,28.205144 0 0 0 -0.11552,-0.14252 28.121388,28.205144 0 0 0 -0.11654,-0.1417 28.121388,28.205144 0 0 0 -0.11716,-0.14103 28.121388,28.205144 0 0 0 -0.11806,-0.13977 28.121388,28.205144 0 0 0 -0.11908,-0.13975 28.121388,28.205144 0 0 0 -0.12022,-0.13869 28.121388,28.205144 0 0 0 -0.12098,-0.13791 28.121388,28.205144 0 0 0 -0.12174,-0.13694 28.121388,28.205144 0 0 0 -0.12251,-0.13614 28.121388,28.205144 0 0 0 -0.12365,-0.13526 28.121388,28.205144 0 0 0 -0.12441,-0.13461 28.121388,28.205144 0 0 0 -0.12531,-0.13391 28.121388,28.205144 0 0 0 -0.12593,-0.13296 28.121388,28.205144 0 0 0 -0.12719,-0.13211 28.121388,28.205144 0 0 0 -0.1276,-0.13115 28.121388,28.205144 0 0 0 -0.12912,-0.1306 28.121388,28.205144 0 0 0 -0.12952,-0.1295 28.121388,28.205144 0 0 0 -0.1302,-0.12845 28.121388,28.205144 0 0 0 -0.13118,-0.12795 28.121388,28.205144 0 0 0 -0.13214,-0.12695 28.121388,28.205144 0 0 0 -0.1327,-0.12607 28.121388,28.205144 0 0 0 -0.13363,-0.12543 28.121388,28.205144 0 0 0 -0.13462,-0.12441 28.121388,28.205144 0 0 0 -0.13544,-0.12365 28.121388,28.205144 0 0 0 -0.13571,-0.12263 28.121388,28.205144 0 0 0 -0.13723,-0.12175 28.121388,28.205144 0 0 0 -0.0546,-0.0478 28.121388,28.205144 0 0 0 2.72813,-10.50933 10.600924,10.632498 0 0 0 6.34633,-9.7384 10.600924,10.632498 0 0 0 -0.53549,-3.33634 10.600924,10.632498 0 0 1 -5.9831,1.85555 10.600924,10.632498 0 0 1 -1.45444,-0.1004 28.121388,28.205144 0 0 0 -26.44219,-18.60532 28.121388,28.205144 0 0 0 -0.0733,0 z"
           style="display:inline;opacity:1;fill:#ffffff;fill-opacity:1;stroke-width:1.62471;stroke-linecap:square;stroke-linejoin:round;paint-order:stroke fill markers;stop-color:#000000"
           id="path1051-8-4-6-9-7-3-7-2-8-0" />
        <path
           id="path1051-8-4-6-9-7-3-7-2-8-0-8"
           style="display:inline;opacity:1;fill:#ffffff;fill-opacity:1;stroke-width:1.62471;stroke-linecap:square;stroke-linejoin:round;paint-order:stroke fill markers;stop-color:#000000"
           d="m 310.46264,16.826356 a 28.121388,28.205144 0 0 0 -28.04841,28.20488 28.121388,28.205144 0 0 0 15.06577,24.98145 28.121388,28.205144 0 0 1 -7.30591,1.167111 28.121388,28.205144 0 0 1 -0.73115,0.008 28.121388,28.205144 0 0 1 -27.67713,-23.213333 45.658172,45.79416 0 0 0 -5.05305,20.940472 45.658172,45.79416 0 0 0 45.65786,45.794294 45.658172,45.79416 0 0 0 35.32255,-16.777593 45.658172,45.79416 0 0 0 5.84341,-9.208622 28.121388,28.205144 0 0 0 0.0114,-0.0291 28.121388,28.205144 0 0 0 0.0652,-0.171601 28.121388,28.205144 0 0 0 0.0643,-0.171608 28.121388,28.205144 0 0 0 0.0637,-0.172231 28.121388,28.205144 0 0 0 0.0626,-0.172461 28.121388,28.205144 0 0 0 0.0607,-0.172669 28.121388,28.205144 0 0 0 0.0601,-0.1733 28.121388,28.205144 0 0 0 0.059,-0.173731 28.121388,28.205144 0 0 0 0.0582,-0.174169 28.121388,28.205144 0 0 0 0.0573,-0.17439 28.121388,28.205144 0 0 0 0.0555,-0.1748 28.121388,28.205144 0 0 0 0.0548,-0.17522 28.121388,28.205144 0 0 0 0.0529,-0.17545 28.121388,28.205144 0 0 0 0.0522,-0.17588 28.121388,28.205144 0 0 0 0.0512,-0.176519 28.121388,28.205144 0 0 0 0.0503,-0.176522 28.121388,28.205144 0 0 0 0.0485,-0.17694 28.121388,28.205144 0 0 0 0.0474,-0.17716 28.121388,28.205144 0 0 0 0.0466,-0.177358 28.121388,28.205144 0 0 0 0.0457,-0.1778 28.121388,28.205144 0 0 0 0.0441,-0.178012 28.121388,28.205144 0 0 0 0.0432,-0.17844 28.121388,28.205144 0 0 0 0.0423,-0.17844 28.121388,28.205144 0 0 0 0.0404,-0.179078 28.121388,28.205144 0 0 0 0.0399,-0.17907 28.121388,28.205144 0 0 0 0.0388,-0.179531 28.121388,28.205144 0 0 0 0.0371,-0.179691 28.121388,28.205144 0 0 0 0.0361,-0.179949 28.121388,28.205144 0 0 0 0.0353,-0.17993 28.121388,28.205144 0 0 0 0.0334,-0.180591 28.121388,28.205144 0 0 0 0.0325,-0.180769 28.121388,28.205144 0 0 0 0.0318,-0.1808 28.121388,28.205144 0 0 0 0.0299,-0.181001 28.121388,28.205144 0 0 0 0.029,-0.18102 28.121388,28.205144 0 0 0 0.0283,-0.181409 28.121388,28.205144 0 0 0 0.0264,-0.18143 28.121388,28.205144 0 0 0 0.0255,-0.18165 28.121388,28.205144 0 0 0 0.0248,-0.18207 28.121388,28.205144 0 0 0 0.023,-0.182071 28.121388,28.205144 0 0 0 0.022,-0.18207 28.121388,28.205144 0 0 0 0.0213,-0.182489 28.121388,28.205144 0 0 0 0.0191,-0.182501 28.121388,28.205144 0 0 0 0.019,-0.18252 28.121388,28.205144 0 0 0 0.017,-0.18269 28.121388,28.205144 0 0 0 0.0149,-0.18315 28.121388,28.205144 0 0 0 0.015,-0.182718 28.121388,28.205144 0 0 0 0.0127,-0.183121 28.121388,28.205144 0 0 0 0.0127,-0.18315 28.121388,28.205144 0 0 0 0.0114,-0.18315 28.121388,28.205144 0 0 0 0.0114,-0.18334 28.121388,28.205144 0 0 0 0.008,-0.183351 28.121388,28.205144 0 0 0 0.009,-0.18315 28.121388,28.205144 0 0 0 0.008,-0.183359 28.121388,28.205144 0 0 0 0.008,-0.183769 28.121388,28.205144 0 0 0 0.008,-0.183372 28.121388,28.205144 0 0 0 0,-0.183349 28.121388,28.205144 0 0 0 0,-0.18335 28.121388,28.205144 0 0 0 2.1e-4,-0.18378 28.121388,28.205144 0 0 0 0,-0.0735 28.121388,28.205144 0 0 0 0,-0.183349 28.121388,28.205144 0 0 0 0,-0.183351 28.121388,28.205144 0 0 0 0,-0.18379 28.121388,28.205144 0 0 0 -0.008,-0.18334 28.121388,28.205144 0 0 0 -0.008,-0.183348 28.121388,28.205144 0 0 0 -0.008,-0.183582 28.121388,28.205144 0 0 0 -0.008,-0.18334 28.121388,28.205144 0 0 0 -0.008,-0.18315 28.121388,28.205144 0 0 0 -0.0114,-0.18334 28.121388,28.205144 0 0 0 -0.0114,-0.18315 28.121388,28.205144 0 0 0 -0.0127,-0.18315 28.121388,28.205144 0 0 0 -0.0127,-0.183129 28.121388,28.205144 0 0 0 -0.0149,-0.182721 28.121388,28.205144 0 0 0 -0.017,-0.182711 28.121388,28.205144 0 0 0 -0.017,-0.182689 28.121388,28.205144 0 0 0 -0.019,-0.18252 28.121388,28.205144 0 0 0 -0.0213,-0.182499 28.121388,28.205144 0 0 0 -0.0214,-0.182491 28.121388,28.205144 0 0 0 -0.022,-0.182071 28.121388,28.205144 0 0 0 -0.0239,-0.182089 28.121388,28.205144 0 0 0 -0.0248,-0.181628 28.121388,28.205144 0 0 0 -0.0255,-0.181861 28.121388,28.205144 0 0 0 -0.0272,-0.18142 28.121388,28.205144 0 0 0 -0.0283,-0.18143 28.121388,28.205144 0 0 0 -0.0299,-0.18102 28.121388,28.205144 0 0 0 -0.031,-0.180779 28.121388,28.205144 0 0 0 -0.0318,-0.180793 28.121388,28.205144 0 0 0 -0.0325,-0.180348 28.121388,28.205144 0 0 0 -0.0343,-0.180379 28.121388,28.205144 0 0 0 -0.0353,-0.180142 28.121388,28.205144 0 0 0 -0.0361,-0.179718 28.121388,28.205144 0 0 0 -0.038,-0.179732 28.121388,28.205144 0 0 0 -0.0388,-0.17907 28.121388,28.205144 0 0 0 -0.0399,-0.17907 28.121388,28.205144 0 0 0 -0.0414,-0.178879 28.121388,28.205144 0 0 0 -0.0423,-0.17844 28.121388,28.205144 0 0 0 -0.0433,-0.178451 28.121388,28.205144 0 0 0 -0.0451,-0.177779 28.121388,28.205144 0 0 0 -0.0457,-0.177789 28.121388,28.205144 0 0 0 -0.0469,-0.177382 28.121388,28.205144 0 0 0 -0.0478,-0.17716 28.121388,28.205144 0 0 0 -0.0493,-0.176509 28.121388,28.205144 0 0 0 -0.0503,-0.17631 28.121388,28.205144 0 0 0 -0.0512,-0.1763 28.121388,28.205144 0 0 0 -0.0529,-0.175871 28.121388,28.205144 0 0 0 -0.0538,-0.17544 28.121388,28.205144 0 0 0 -0.0547,-0.174818 28.121388,28.205144 0 0 0 -0.0565,-0.174803 28.121388,28.205144 0 0 0 -0.0573,-0.17417 28.121388,28.205144 0 0 0 -0.0582,-0.174159 28.121388,28.205144 0 0 0 -0.059,-0.173519 28.121388,28.205144 0 0 0 -0.0608,-0.173299 28.121388,28.205144 0 0 0 -0.0618,-0.172461 28.121388,28.205144 0 0 0 -0.0637,-0.172471 28.121388,28.205144 0 0 0 -0.0637,-0.1718 28.121388,28.205144 0 0 0 -0.0652,-0.171608 28.121388,28.205144 0 0 0 -0.0662,-0.171151 28.121388,28.205144 0 0 0 -0.0677,-0.170551 28.121388,28.205144 0 0 0 -0.0677,-0.17032 28.121388,28.205144 0 0 0 -0.0698,-0.1699 28.121388,28.205144 0 0 0 -0.0705,-0.16923 28.121388,28.205144 0 0 0 -0.0714,-0.16883 28.121388,28.205144 0 0 0 -0.0733,-0.168191 28.121388,28.205144 0 0 0 -0.0741,-0.167748 28.121388,28.205144 0 0 0 -0.0748,-0.167532 28.121388,28.205144 0 0 0 -0.0759,-0.166899 28.121388,28.205144 0 0 0 -0.0778,-0.166259 28.121388,28.205144 0 0 0 -0.0778,-0.165811 28.121388,28.205144 0 0 0 -0.0792,-0.16563 28.121388,28.205144 0 0 0 -0.0803,-0.164959 28.121388,28.205144 0 0 0 -0.0811,-0.16436 28.121388,28.205144 0 0 0 -0.0829,-0.163689 28.121388,28.205144 0 0 0 -0.0837,-0.163251 28.121388,28.205144 0 0 0 -0.0845,-0.163071 28.121388,28.205144 0 0 0 -0.0857,-0.16198 28.121388,28.205144 0 0 0 -0.0863,-0.161571 28.121388,28.205144 0 0 0 -0.0883,-0.160898 28.121388,28.205144 0 0 0 -0.0888,-0.160491 28.121388,28.205144 0 0 0 -0.0901,-0.159639 28.121388,28.205144 0 0 0 -0.0907,-0.159401 28.121388,28.205144 0 0 0 -0.092,-0.15857 28.121388,28.205144 0 0 0 -0.0929,-0.158139 28.121388,28.205144 0 0 0 -0.0942,-0.157721 28.121388,28.205144 0 0 0 -0.0951,-0.156641 28.121388,28.205144 0 0 0 -0.0958,-0.15621 28.121388,28.205144 0 0 0 -0.0972,-0.155779 28.121388,28.205144 0 0 0 -0.098,-0.154709 28.121388,28.205144 0 0 0 -0.099,-0.1543 28.121388,28.205144 0 0 0 -0.10002,-0.153652 28.121388,28.205144 0 0 0 -0.10141,-0.153228 28.121388,28.205144 0 0 0 -0.10204,-0.152349 28.121388,28.205144 0 0 0 -0.10281,-0.151731 28.121388,28.205144 0 0 0 -0.10396,-0.150881 28.121388,28.205144 0 0 0 -0.10547,-0.15045 28.121388,28.205144 0 0 0 -0.10586,-0.149799 28.121388,28.205144 0 0 0 -0.10701,-0.148731 28.121388,28.205144 0 0 0 -0.10802,-0.148518 28.121388,28.205144 0 0 0 -0.1089,-0.147442 28.121388,28.205144 0 0 0 -0.10993,-0.14682 28.121388,28.205144 0 0 0 -0.11056,-0.14618 28.121388,28.205144 0 0 0 -0.11196,-0.14551 28.121388,28.205144 0 0 0 -0.11247,-0.144481 28.121388,28.205144 0 0 0 -0.11386,-0.143819 28.121388,28.205144 0 0 0 -0.11437,-0.14318 28.121388,28.205144 0 0 0 -0.11552,-0.14252 28.121388,28.205144 0 0 0 -0.11654,-0.1417 28.121388,28.205144 0 0 0 -0.11716,-0.141029 28.121388,28.205144 0 0 0 -0.11806,-0.139771 28.121388,28.205144 0 0 0 -0.11908,-0.13975 28.121388,28.205144 0 0 0 -0.12022,-0.13869 28.121388,28.205144 0 0 0 -0.12098,-0.137908 28.121388,28.205144 0 0 0 -0.12174,-0.136941 28.121388,28.205144 0 0 0 -0.12251,-0.136141 28.121388,28.205144 0 0 0 -0.12365,-0.13526 28.121388,28.205144 0 0 0 -0.12441,-0.13461 28.121388,28.205144 0 0 0 -0.12531,-0.133911 28.121388,28.205144 0 0 0 -0.12593,-0.132958 28.121388,28.205144 0 0 0 -0.12719,-0.132109 28.121388,28.205144 0 0 0 -0.1276,-0.131152 28.121388,28.205144 0 0 0 -0.12912,-0.130601 28.121388,28.205144 0 0 0 -0.12952,-0.1295 28.121388,28.205144 0 0 0 -0.1302,-0.12845 28.121388,28.205144 0 0 0 -0.13118,-0.12795 28.121388,28.205144 0 0 0 -0.13214,-0.126949 28.121388,28.205144 0 0 0 -0.1327,-0.126069 28.121388,28.205144 0 0 0 -0.13363,-0.125431 28.121388,28.205144 0 0 0 -0.13462,-0.12441 28.121388,28.205144 0 0 0 -0.13544,-0.12365 28.121388,28.205144 0 0 0 -0.13571,-0.122629 28.121388,28.205144 0 0 0 -0.13723,-0.121751 28.121388,28.205144 0 0 0 -0.0546,-0.0478 28.121388,28.205144 0 0 0 2.72813,-10.50933 10.600924,10.632498 0 0 0 6.34633,-9.738401 10.600924,10.632498 0 0 0 -0.53549,-3.33634 10.600924,10.632498 0 0 1 -5.9831,1.85555 10.600924,10.632498 0 0 1 -1.45444,-0.1004 28.121388,28.205144 0 0 0 -26.44219,-18.60532 28.121388,28.205144 0 0 0 -0.0733,0 z" />
      </g>
    </g>
  </g>
</svg>
